<?xml version="1.0" encoding="UTF-8" standalone="no"?>
<!-- Created with Inkscape (http://www.inkscape.org/) -->

<svg
   xmlns:dc="http://purl.org/dc/elements/1.1/"
   xmlns:cc="http://creativecommons.org/ns#"
   xmlns:rdf="http://www.w3.org/1999/02/22-rdf-syntax-ns#"
   xmlns:svg="http://www.w3.org/2000/svg"
   xmlns="http://www.w3.org/2000/svg"
   xmlns:sodipodi="http://sodipodi.sourceforge.net/DTD/sodipodi-0.dtd"
   xmlns:inkscape="http://www.inkscape.org/namespaces/inkscape"
   version="1.1"
   id="svg2"
   xml:space="preserve"
   width="609.29333"
   height="282.74664"
   viewBox="0 0 609.29334 282.74664"
   sodipodi:docname="main.svg"
   inkscape:version="0.92.4 (5da689c313, 2019-01-14)"><metadata
     id="metadata8"><rdf:RDF><cc:Work
         rdf:about=""><dc:format>image/svg+xml</dc:format><dc:type
           rdf:resource="http://purl.org/dc/dcmitype/StillImage" /><dc:title></dc:title></cc:Work></rdf:RDF></metadata><defs
     id="defs6"><clipPath
       clipPathUnits="userSpaceOnUse"
       id="clipPath18"><path
         d="M 50.4,463.44 H 547.08 V 738 H 50.4 Z"
         id="path16"
         inkscape:connector-curvature="0"
         style="clip-rule:evenodd" /></clipPath><clipPath
       clipPathUnits="userSpaceOnUse"
       id="clipPath28"><path
         d="M 50.4,463.44 H 547.08 V 738 H 50.4 Z"
         id="path26"
         inkscape:connector-curvature="0"
         style="clip-rule:evenodd" /></clipPath><clipPath
       clipPathUnits="userSpaceOnUse"
       id="clipPath42"><path
         d="M 76.68,515.28 H 488.64 V 712.56 H 76.68 Z"
         id="path40"
         inkscape:connector-curvature="0"
         style="clip-rule:evenodd" /></clipPath><clipPath
       clipPathUnits="userSpaceOnUse"
       id="clipPath52"><path
         d="M 76.68,515.28 H 488.64 V 712.56 H 76.68 Z"
         id="path50"
         inkscape:connector-curvature="0"
         style="clip-rule:evenodd" /></clipPath><clipPath
       clipPathUnits="userSpaceOnUse"
       id="clipPath62"><path
         d="M 76.68,515.28 H 488.64 V 712.56 H 76.68 Z"
         id="path60"
         inkscape:connector-curvature="0"
         style="clip-rule:evenodd" /></clipPath><clipPath
       clipPathUnits="userSpaceOnUse"
       id="clipPath72"><path
         d="M 76.68,515.28 H 488.64 V 712.56 H 76.68 Z"
         id="path70"
         inkscape:connector-curvature="0"
         style="clip-rule:evenodd" /></clipPath><clipPath
       clipPathUnits="userSpaceOnUse"
       id="clipPath82"><path
         d="M 76.68,515.28 H 488.64 V 712.56 H 76.68 Z"
         id="path80"
         inkscape:connector-curvature="0"
         style="clip-rule:evenodd" /></clipPath><clipPath
       clipPathUnits="userSpaceOnUse"
       id="clipPath92"><path
         d="M 76.68,515.28 H 488.64 V 712.56 H 76.68 Z"
         id="path90"
         inkscape:connector-curvature="0"
         style="clip-rule:evenodd" /></clipPath><clipPath
       clipPathUnits="userSpaceOnUse"
       id="clipPath102"><path
         d="M 76.68,515.28 H 488.64 V 712.56 H 76.68 Z"
         id="path100"
         inkscape:connector-curvature="0"
         style="clip-rule:evenodd" /></clipPath><clipPath
       clipPathUnits="userSpaceOnUse"
       id="clipPath112"><path
         d="M 76.68,515.28 H 488.64 V 712.56 H 76.68 Z"
         id="path110"
         inkscape:connector-curvature="0"
         style="clip-rule:evenodd" /></clipPath><clipPath
       clipPathUnits="userSpaceOnUse"
       id="clipPath122"><path
         d="M 76.68,515.28 H 488.64 V 712.56 H 76.68 Z"
         id="path120"
         inkscape:connector-curvature="0"
         style="clip-rule:evenodd" /></clipPath><clipPath
       clipPathUnits="userSpaceOnUse"
       id="clipPath132"><path
         d="M 50.4,498.24 H 507.36 V 738 H 50.4 Z"
         id="path130"
         inkscape:connector-curvature="0"
         style="clip-rule:evenodd" /></clipPath><clipPath
       clipPathUnits="userSpaceOnUse"
       id="clipPath144"><path
         d="M 50.4,498.24 H 507.36 V 738 H 50.4 Z"
         id="path142"
         inkscape:connector-curvature="0"
         style="clip-rule:evenodd" /></clipPath><clipPath
       clipPathUnits="userSpaceOnUse"
       id="clipPath156"><path
         d="M 50.4,498.24 H 507.36 V 738 H 50.4 Z"
         id="path154"
         inkscape:connector-curvature="0"
         style="clip-rule:evenodd" /></clipPath><clipPath
       clipPathUnits="userSpaceOnUse"
       id="clipPath168"><path
         d="M 50.4,498.24 H 507.36 V 738 H 50.4 Z"
         id="path166"
         inkscape:connector-curvature="0"
         style="clip-rule:evenodd" /></clipPath><clipPath
       clipPathUnits="userSpaceOnUse"
       id="clipPath180"><path
         d="M 50.4,498.24 H 507.36 V 738 H 50.4 Z"
         id="path178"
         inkscape:connector-curvature="0"
         style="clip-rule:evenodd" /></clipPath><clipPath
       clipPathUnits="userSpaceOnUse"
       id="clipPath192"><path
         d="M 50.4,498.24 H 507.36 V 738 H 50.4 Z"
         id="path190"
         inkscape:connector-curvature="0"
         style="clip-rule:evenodd" /></clipPath><clipPath
       clipPathUnits="userSpaceOnUse"
       id="clipPath204"><path
         d="M 50.4,498.24 H 507.36 V 738 H 50.4 Z"
         id="path202"
         inkscape:connector-curvature="0"
         style="clip-rule:evenodd" /></clipPath><clipPath
       clipPathUnits="userSpaceOnUse"
       id="clipPath216"><path
         d="M 50.4,498.24 H 507.36 V 738 H 50.4 Z"
         id="path214"
         inkscape:connector-curvature="0"
         style="clip-rule:evenodd" /></clipPath><clipPath
       clipPathUnits="userSpaceOnUse"
       id="clipPath228"><path
         d="M 50.4,498.24 H 507.36 V 738 H 50.4 Z"
         id="path226"
         inkscape:connector-curvature="0"
         style="clip-rule:evenodd" /></clipPath><clipPath
       clipPathUnits="userSpaceOnUse"
       id="clipPath240"><path
         d="M 50.4,498.24 H 507.36 V 738 H 50.4 Z"
         id="path238"
         inkscape:connector-curvature="0"
         style="clip-rule:evenodd" /></clipPath><clipPath
       clipPathUnits="userSpaceOnUse"
       id="clipPath252"><path
         d="M 50.4,498.24 H 507.36 V 738 H 50.4 Z"
         id="path250"
         inkscape:connector-curvature="0"
         style="clip-rule:evenodd" /></clipPath><clipPath
       clipPathUnits="userSpaceOnUse"
       id="clipPath264"><path
         d="M 50.4,498.24 H 507.36 V 738 H 50.4 Z"
         id="path262"
         inkscape:connector-curvature="0"
         style="clip-rule:evenodd" /></clipPath><clipPath
       clipPathUnits="userSpaceOnUse"
       id="clipPath276"><path
         d="M 50.4,498.24 H 507.36 V 738 H 50.4 Z"
         id="path274"
         inkscape:connector-curvature="0"
         style="clip-rule:evenodd" /></clipPath><clipPath
       clipPathUnits="userSpaceOnUse"
       id="clipPath288"><path
         d="M 50.4,498.24 H 507.36 V 738 H 50.4 Z"
         id="path286"
         inkscape:connector-curvature="0"
         style="clip-rule:evenodd" /></clipPath><clipPath
       clipPathUnits="userSpaceOnUse"
       id="clipPath300"><path
         d="M 50.4,498.24 H 507.36 V 738 H 50.4 Z"
         id="path298"
         inkscape:connector-curvature="0"
         style="clip-rule:evenodd" /></clipPath><clipPath
       clipPathUnits="userSpaceOnUse"
       id="clipPath312"><path
         d="M 50.4,498.24 H 507.36 V 738 H 50.4 Z"
         id="path310"
         inkscape:connector-curvature="0"
         style="clip-rule:evenodd" /></clipPath><clipPath
       clipPathUnits="userSpaceOnUse"
       id="clipPath324"><path
         d="M 50.4,498.24 H 507.36 V 738 H 50.4 Z"
         id="path322"
         inkscape:connector-curvature="0"
         style="clip-rule:evenodd" /></clipPath><clipPath
       clipPathUnits="userSpaceOnUse"
       id="clipPath336"><path
         d="M 50.4,498.24 H 507.36 V 738 H 50.4 Z"
         id="path334"
         inkscape:connector-curvature="0"
         style="clip-rule:evenodd" /></clipPath><clipPath
       clipPathUnits="userSpaceOnUse"
       id="clipPath348"><path
         d="M 50.4,498.24 H 507.36 V 738 H 50.4 Z"
         id="path346"
         inkscape:connector-curvature="0"
         style="clip-rule:evenodd" /></clipPath><clipPath
       clipPathUnits="userSpaceOnUse"
       id="clipPath360"><path
         d="M 547.08,738 V 463.44 H 50.4 V 738 Z"
         id="path358"
         inkscape:connector-curvature="0"
         style="clip-rule:evenodd" /></clipPath><clipPath
       clipPathUnits="userSpaceOnUse"
       id="clipPath370"><path
         d="m 304.2,633 h 29.16 v 11.4 H 304.2 Z"
         id="path368"
         inkscape:connector-curvature="0"
         style="clip-rule:evenodd" /></clipPath><clipPath
       clipPathUnits="userSpaceOnUse"
       id="clipPath382"><path
         d="m 275.04,615.72 h 29.28 v 11.52 h -29.28 z"
         id="path380"
         inkscape:connector-curvature="0"
         style="clip-rule:evenodd" /></clipPath><clipPath
       clipPathUnits="userSpaceOnUse"
       id="clipPath394"><path
         d="m 290.4,597 h 29.16 v 11.52 H 290.4 Z"
         id="path392"
         inkscape:connector-curvature="0"
         style="clip-rule:evenodd" /></clipPath><clipPath
       clipPathUnits="userSpaceOnUse"
       id="clipPath406"><path
         d="m 322.08,598.44 h 29.28 v 11.52 h -29.28 z"
         id="path404"
         inkscape:connector-curvature="0"
         style="clip-rule:evenodd" /></clipPath><clipPath
       clipPathUnits="userSpaceOnUse"
       id="clipPath418"><path
         d="M 315.72,562.08 H 345 v 11.4 h -29.28 z"
         id="path416"
         inkscape:connector-curvature="0"
         style="clip-rule:evenodd" /></clipPath><clipPath
       clipPathUnits="userSpaceOnUse"
       id="clipPath430"><path
         d="m 275.04,553.2 h 29.28 v 11.4 h -29.28 z"
         id="path428"
         inkscape:connector-curvature="0"
         style="clip-rule:evenodd" /></clipPath><clipPath
       clipPathUnits="userSpaceOnUse"
       id="clipPath442"><path
         d="m 234.96,568.92 h 29.16 v 11.52 h -29.16 z"
         id="path440"
         inkscape:connector-curvature="0"
         style="clip-rule:evenodd" /></clipPath><clipPath
       clipPathUnits="userSpaceOnUse"
       id="clipPath454"><path
         d="m 265.08,571.92 h 29.16 v 11.4 h -29.16 z"
         id="path452"
         inkscape:connector-curvature="0"
         style="clip-rule:evenodd" /></clipPath><clipPath
       clipPathUnits="userSpaceOnUse"
       id="clipPath466"><path
         d="m 295.68,579.24 h 29.16 v 11.52 h -29.16 z"
         id="path464"
         inkscape:connector-curvature="0"
         style="clip-rule:evenodd" /></clipPath><clipPath
       clipPathUnits="userSpaceOnUse"
       id="clipPath478"><path
         d="M 50.4,711.36 H 427.32 V 738 H 50.4 Z"
         id="path476"
         inkscape:connector-curvature="0"
         style="clip-rule:evenodd" /></clipPath><clipPath
       clipPathUnits="userSpaceOnUse"
       id="clipPath490"><path
         d="M 50.4,711.36 H 427.32 V 738 H 50.4 Z"
         id="path488"
         inkscape:connector-curvature="0"
         style="clip-rule:evenodd" /></clipPath><clipPath
       clipPathUnits="userSpaceOnUse"
       id="clipPath502"><path
         d="M 50.4,711.36 H 427.32 V 738 H 50.4 Z"
         id="path500"
         inkscape:connector-curvature="0"
         style="clip-rule:evenodd" /></clipPath><clipPath
       clipPathUnits="userSpaceOnUse"
       id="clipPath514"><path
         d="M 50.4,711.36 H 427.32 V 738 H 50.4 Z"
         id="path512"
         inkscape:connector-curvature="0"
         style="clip-rule:evenodd" /></clipPath><clipPath
       clipPathUnits="userSpaceOnUse"
       id="clipPath526"><path
         d="M 50.4,711.36 H 427.32 V 738 H 50.4 Z"
         id="path524"
         inkscape:connector-curvature="0"
         style="clip-rule:evenodd" /></clipPath><clipPath
       clipPathUnits="userSpaceOnUse"
       id="clipPath538"><path
         d="M 50.4,711.36 H 427.32 V 738 H 50.4 Z"
         id="path536"
         inkscape:connector-curvature="0"
         style="clip-rule:evenodd" /></clipPath><clipPath
       clipPathUnits="userSpaceOnUse"
       id="clipPath550"><path
         d="M 50.4,711.36 H 427.32 V 738 H 50.4 Z"
         id="path548"
         inkscape:connector-curvature="0"
         style="clip-rule:evenodd" /></clipPath><clipPath
       clipPathUnits="userSpaceOnUse"
       id="clipPath562"><path
         d="M 50.4,711.36 H 427.32 V 738 H 50.4 Z"
         id="path560"
         inkscape:connector-curvature="0"
         style="clip-rule:evenodd" /></clipPath><clipPath
       id="clipPath1152"
       clipPathUnits="userSpaceOnUse"><rect
         y="10.398973"
         x="9.1977921"
         height="69.917221"
         width="95.440437"
         id="rect1154"
         style="fill:#c09600;stroke-width:0.946585" /></clipPath></defs><sodipodi:namedview
     pagecolor="#ffffff"
     bordercolor="#666666"
     borderopacity="1"
     objecttolerance="10"
     gridtolerance="10"
     guidetolerance="10"
     inkscape:pageopacity="0"
     inkscape:pageshadow="2"
     inkscape:window-width="1920"
     inkscape:window-height="1217"
     id="namedview4"
     showgrid="false"
     inkscape:pagecheckerboard="true"
     inkscape:zoom="2"
     inkscape:cx="249.63759"
     inkscape:cy="23.080888"
     inkscape:window-x="-8"
     inkscape:window-y="-8"
     inkscape:window-maximized="1"
     inkscape:current-layer="g10" /><g
     id="g10"
     inkscape:groupmode="layer"
     inkscape:label="main"
     transform="matrix(1.3333333,0,0,-1.3333333,-67.199998,983.99998)"><g
       id="g12"
       transform="matrix(1,0,0,0.92517778,0,55.218804)"><g
         id="g14"
         clip-path="url(#clipPath18)"><path
           d="M 50.4,508.79 H 507.37 V 738 H 50.4 Z"
           style="fill:#ffffff;fill-opacity:1;fill-rule:evenodd;stroke:none"
           id="path20"
           inkscape:connector-curvature="0" /></g></g><g
       id="g22"><g
         id="g24"
         clip-path="url(#clipPath28)"><path
           d="M 50.4,498.19 H 507.37 V 738 H 50.4 Z"
           style="fill:none;stroke:#000000;stroke-width:0.14;stroke-linecap:butt;stroke-linejoin:miter;stroke-miterlimit:10;stroke-dasharray:none;stroke-opacity:0"
           id="path30"
           inkscape:connector-curvature="0" /></g></g><path
       d="M 76.703,547.72 H 487.98"
       style="fill:none;stroke:#000000;stroke-width:0.75;stroke-linecap:butt;stroke-linejoin:round;stroke-miterlimit:10;stroke-dasharray:none;stroke-opacity:1"
       id="path32"
       inkscape:connector-curvature="0" /><path
       d="M 76.703,547.72 V 545 M 111,547.72 V 545 m 34.2,2.72 V 545 m 34.32,2.72 V 545 m 34.32,2.72 V 545 m 34.2,2.72 V 545 m 34.32,2.72 V 545 m 34.2,2.72 V 545 m 34.32,2.72 V 545 m 34.32,2.72 V 545 m 34.2,2.72 V 545 m 34.32,2.72 V 545 m 34.26,2.72 V 545"
       style="fill:none;stroke:#000000;stroke-width:0.75;stroke-linecap:butt;stroke-linejoin:round;stroke-miterlimit:10;stroke-dasharray:none;stroke-opacity:1"
       id="path34"
       inkscape:connector-curvature="0" /><g
       id="g36"><g
         id="g38"
         clip-path="url(#clipPath42)"><path
           d="m 77.417,659.04 1.423,-0.84 1.44,-0.84 1.44,-0.72 1.44,-1.44 1.44,-0.24 1.44,-1.2 1.32,-0.96 1.44,-0.72 1.44,-0.6 1.44,-0.36 1.44,-0.84 1.44,-0.48 1.44,-0.6 1.44,-0.24 1.44,-0.48 1.44,-0.48 1.32,-0.12 h 1.44 l 1.44,-0.72 1.44,-0.36 1.44,-0.6 1.44,0.12 1.44,-0.72 1.44,-0.12 1.44,-0.12 1.44,-0.12 1.32,-0.24 1.44,-0.12 1.44,-0.24 1.44,0.24 h 1.44 l 1.44,0.12 h 1.44 l 1.44,-0.12 1.44,0.12 h 1.44 1.32 l 1.44,0.12 1.44,0.24 1.44,0.24 1.44,0.36 1.44,0.12 h 1.44 l 1.44,0.12 1.44,0.12 1.44,0.36 1.32,0.36 1.44,0.36 1.44,0.6 1.44,0.36 1.44,-0.36 1.44,0.36 1.44,-0.12 h 1.44 1.44 1.44 1.32 l 1.44,-0.24 1.44,0.24 h 1.44 l 1.44,-0.12 1.44,0.24 1.44,0.12 1.44,0.48 1.44,0.6 1.44,0.36 1.32,0.36 1.44,0.36 1.44,0.24 1.44,0.12 1.44,0.36 1.44,0.48 1.44,0.6 h 1.44 1.44 1.44 l 1.32,-0.36 1.44,-0.6 1.44,-0.48 1.44,-0.24 1.44,-0.6 1.44,-0.36 1.44,0.12 1.44,-0.36 1.44,-0.24 1.44,-0.36 1.32,-1.32 1.44,-0.72 1.44,-0.12 1.44,-0.12 1.44,-0.36 1.44,-0.12 1.44,-0.6 1.44,-0.12 1.44,0.12 1.44,-0.96 1.32,-0.72 1.44,-0.6 1.44,-0.72 1.44,-0.96 1.44,-0.36 1.44,-2.04 1.44,-0.96 1.44,-0.48 1.44,-0.36 1.44,-0.36 1.32,0.36 1.44,0.84 1.44,0.24 1.44,-0.48 1.44,-0.72 1.44,-1.44 1.44,-0.72 1.44,0.12 1.44,-0.12 1.44,0.12 1.32,-0.48 1.44,-0.36 1.44,-0.12 1.44,0.96 h 1.44 l 1.44,-0.48 1.44,-0.6 1.44,0.24 1.44,-0.12 1.44,-0.24 1.32,-0.24 1.44,-0.24 1.44,0.12 1.44,0.12 1.44,-0.12 1.44,1.32 1.44,-0.96 1.44,0.24 1.44,0.48 1.44,-0.12 1.32,0.12 1.44,-0.12 1.44,0.12 h 1.44 l 1.44,-0.12 1.44,0.36 1.44,0.36 1.44,0.12 h 1.44 l 1.44,-0.12 1.32,-0.36 1.44,0.72 1.44,-0.36 1.44,-0.24 1.44,-0.48 1.44,-0.12 h 1.44 l 1.44,-0.24 h 1.44 l 1.44,-0.12 1.44,-0.12 1.32,-0.6 h 1.44 l 1.44,-0.6 h 1.44 l 1.44,-0.24 1.44,-0.12 1.44,-0.48 1.44,-0.24 1.44,-0.6 1.44,-0.6 1.32,0.36 1.44,-0.55 1.44,0.19 1.44,0.12 1.44,0.48 1.44,0.72 1.44,0.48 1.44,0.24 h 1.44 l 1.44,0.12 h 1.32 1.44 l 1.44,0.84 1.44,0.48 h 1.44 l 1.44,0.24 1.44,1.08 1.44,0.24 1.44,-0.12 1.44,-0.24 1.32,-0.12 h 1.44 l 1.44,0.12 1.44,0.72 1.44,1.08 1.44,-0.24 1.44,0.24 1.44,1.08 1.44,0.6 1.44,0.72 h 1.32 l 1.44,0.36 1.44,0.36 1.44,0.72 1.44,0.48 1.44,0.48 1.44,7.8 1.44,1.8 1.44,1.8 1.44,0.72 1.32,0.36 1.44,0.6 1.44,0.96 1.44,0.96 1.44,0.6 1.44,0.36 1.44,0.96 1.44,1.32 1.44,1.56 1.44,0.96 1.32,0.84 1.44,0.72 1.44,0.96 1.44,0.96 1.44,0.96 1.44,1.08 1.44,0.84 1.44,0.72 1.44,0.72 1.44,0.72 1.32,0.96 1.44,0.48 1.44,1.08 1.44,0.96 1.44,1.32 1.44,2.4 1.44,2.52 1.44,1.8 1.44,1.2 1.44,1.56 1.32,1.2 1.44,1.08 1.44,1.08 1.44,0.84 1.44,0.48 1.44,0.6 1.44,0.43 1.44,-0.07 1.44,-0.24 1.44,-0.12 1.32,-0.36 1.44,-0.24 1.44,-0.12 1.44,-0.36 1.44,-0.72 1.44,-0.72 1.44,-1.08 1.44,-0.72 1.44,-0.72 1.44,-1.44 1.32,-1.32 1.44,-1.32 1.44,-0.96 1.44,-0.96 1.44,-1.2 1.44,-1.32 1.44,-1.32 1.44,-1.32 1.44,-0.96 1.44,-0.72 1.32,-0.48 1.44,-1.2 1.44,-0.6 1.44,-0.72 1.44,-0.84 1.44,-0.48 1.44,-0.96 1.44,-0.96 1.44,-1.32 1.44,-0.48 1.32,-0.72 1.44,-1.08 1.44,-0.72 1.44,-0.48 1.44,-0.36 1.44,-0.48 1.44,-0.36 1.44,-0.48 1.44,-0.96 1.39,-0.6"
           style="fill:none;stroke:#fde88b;stroke-width:1.5;stroke-linecap:round;stroke-linejoin:round;stroke-miterlimit:10;stroke-dasharray:none;stroke-opacity:1"
           id="path44"
           inkscape:connector-curvature="0" /></g></g><g
       id="g46"><g
         id="g48"
         clip-path="url(#clipPath52)"><path
           d="m 77.417,663.87 c 0.476,-0.3 0.952,-0.59 1.428,-0.89 0.476,-0.3 0.952,-0.73 1.428,-0.93 0.476,-0.2 0.952,-0.12 1.428,-0.3 0.476,-0.17 0.952,-0.48 1.428,-0.73 0.476,-0.25 0.952,-0.48 1.428,-0.75 0.476,-0.26 0.952,-0.57 1.428,-0.83 0.476,-0.26 0.952,-0.44 1.428,-0.72 0.476,-0.28 0.952,-0.69 1.428,-0.96 0.476,-0.26 0.952,-0.34 1.428,-0.61 0.476,-0.27 0.952,-0.75 1.428,-1.03 0.476,-0.27 0.952,-0.49 1.428,-0.59 0.476,-0.11 0.952,0 1.428,-0.02 0.476,-0.02 0.952,-0.07 1.428,-0.11 0.476,-0.03 0.952,0.02 1.428,-0.08 0.476,-0.09 0.952,-0.36 1.428,-0.46 0.476,-0.11 0.952,-0.06 1.433,-0.18 0.47,-0.12 0.95,-0.39 1.42,-0.52 0.48,-0.12 0.96,-0.11 1.43,-0.23 0.48,-0.13 0.95,-0.41 1.43,-0.51 0.48,-0.1 0.95,-0.01 1.43,-0.11 0.47,-0.1 0.95,-0.28 1.43,-0.47 0.47,-0.2 0.95,-0.52 1.42,-0.7 0.48,-0.17 0.96,-0.34 1.43,-0.35 0.48,-0.02 0.95,0.2 1.43,0.25 0.48,0.04 0.95,-0.05 1.43,0 0.47,0.05 0.95,0.31 1.43,0.29 0.47,-0.01 0.95,-0.26 1.42,-0.36 0.48,-0.11 0.96,-0.15 1.43,-0.26 0.48,-0.11 0.95,-0.38 1.43,-0.42 0.48,-0.03 0.95,0.21 1.43,0.19 0.47,-0.01 0.95,-0.24 1.43,-0.27 0.47,-0.04 0.95,0.11 1.42,0.07 0.48,-0.04 0.96,-0.24 1.43,-0.32 0.48,-0.08 0.95,-0.06 1.43,-0.14 0.48,-0.08 0.95,-0.3 1.43,-0.34 0.47,-0.03 0.95,0.16 1.43,0.13 0.47,-0.04 0.95,-0.34 1.42,-0.32 0.48,0.03 0.96,0.43 1.43,0.48 0.48,0.05 0.95,-0.23 1.43,-0.18 0.48,0.06 0.95,0.42 1.43,0.49 0.47,0.08 0.95,-0.06 1.43,-0.04 0.47,0.03 0.95,0.25 1.42,0.19 0.48,-0.05 0.96,-0.44 1.43,-0.53 0.48,-0.1 0.95,0.02 1.43,-0.04 0.48,-0.06 0.95,-0.33 1.43,-0.33 0.47,-0.01 0.95,0.27 1.43,0.3 0.47,0.03 0.95,-0.12 1.42,-0.11 0.48,0 0.96,0.17 1.43,0.16 0.48,-0.01 0.95,-0.15 1.43,-0.21 0.48,-0.07 0.95,-0.13 1.43,-0.2 0.48,-0.07 0.95,-0.13 1.43,-0.21 0.47,-0.09 0.95,-0.24 1.43,-0.3 0.47,-0.07 0.95,0.02 1.42,-0.11 0.48,-0.13 0.96,-0.58 1.43,-0.68 0.48,-0.1 0.95,0.05 1.43,0.09 0.48,0.04 0.95,0.13 1.43,0.15 0.47,0.02 0.95,0.08 1.43,-0.03 0.47,-0.11 0.95,-0.53 1.42,-0.62 0.48,-0.09 0.96,0.1 1.43,0.08 0.48,-0.02 0.95,-0.18 1.43,-0.2 0.48,-0.01 0.95,-0.05 1.43,0.12 0.47,0.17 0.95,0.74 1.43,0.9 0.47,0.17 0.95,0.01 1.42,0.09 0.48,0.09 0.96,0.35 1.43,0.42 0.48,0.08 0.95,-0.01 1.43,0.04 0.48,0.06 0.95,0.23 1.43,0.27 0.47,0.04 0.95,-0.04 1.43,-0.03 0.47,0 0.95,0.09 1.42,0.05 0.48,-0.03 0.96,-0.07 1.43,-0.28 0.48,-0.21 0.95,-0.66 1.43,-0.99 0.48,-0.33 0.95,-0.63 1.43,-0.99 0.47,-0.36 0.95,-0.91 1.43,-1.15 0.47,-0.25 0.95,-0.23 1.42,-0.31 0.48,-0.07 0.96,-0.04 1.43,-0.15 0.48,-0.11 0.95,-0.43 1.43,-0.54 0.48,-0.1 0.95,0.01 1.43,-0.12 0.47,-0.12 0.95,-0.52 1.43,-0.63 0.47,-0.1 0.95,0.19 1.42,0.03 0.48,-0.17 0.96,-0.82 1.43,-1.01 0.48,-0.19 0.95,0 1.43,-0.14 0.48,-0.14 0.95,-0.62 1.43,-0.72 0.47,-0.1 0.95,0.27 1.43,0.14 0.47,-0.13 0.95,-0.65 1.42,-0.9 0.48,-0.25 0.96,-0.34 1.43,-0.6 0.48,-0.27 0.95,-0.56 1.43,-0.98 0.48,-0.43 0.95,-0.93 1.43,-1.56 0.47,-0.62 0.95,-1.38 1.43,-2.17 0.47,-0.8 0.95,-1.96 1.42,-2.59 0.48,-0.63 0.96,-0.82 1.43,-1.21 0.48,-0.39 0.95,-0.77 1.43,-1.14 0.48,-0.38 0.95,-0.69 1.43,-1.1 0.47,-0.41 0.95,-1.09 1.43,-1.38 0.47,-0.3 0.95,-0.26 1.43,-0.38 0.47,-0.11 0.95,-0.11 1.42,-0.31 0.48,-0.19 0.96,-0.74 1.43,-0.86 0.48,-0.11 0.95,0.25 1.43,0.19 0.48,-0.06 0.95,-0.62 1.43,-0.57 0.47,0.05 0.95,0.83 1.43,0.86 0.47,0.03 0.95,-0.44 1.42,-0.68 0.48,-0.24 0.96,-0.54 1.43,-0.75 0.48,-0.21 0.95,-0.37 1.43,-0.5 0.48,-0.12 0.95,-0.15 1.43,-0.26 0.47,-0.12 0.95,-0.35 1.43,-0.43 0.47,-0.09 0.95,0.01 1.42,-0.07 0.48,-0.08 0.96,-0.26 1.43,-0.42 0.48,-0.15 0.95,-0.38 1.43,-0.48 0.46,-0.1 0.97,0.41 1.43,-0.14 0.47,-0.56 0.95,-2.55 1.43,-3.27 0.47,-0.71 0.95,-0.77 1.42,-1.01 0.48,-0.24 0.96,-0.35 1.43,-0.44 0.48,-0.09 0.95,0.02 1.43,-0.11 0.48,-0.13 0.95,-0.52 1.43,-0.67 0.47,-0.15 0.95,-0.03 1.43,-0.23 0.47,-0.2 0.95,-0.74 1.42,-0.98 0.48,-0.23 0.96,-0.15 1.43,-0.42 0.48,-0.27 0.95,-0.91 1.43,-1.2 0.48,-0.29 0.95,-0.34 1.43,-0.55 0.47,-0.22 0.95,-0.61 1.43,-0.74 0.47,-0.13 0.95,-0.08 1.42,-0.05 0.48,0.04 0.96,0.24 1.43,0.27 0.48,0.02 0.95,-0.08 1.43,-0.11 0.48,-0.03 0.95,-0.12 1.43,-0.07 0.47,0.04 0.95,0.24 1.43,0.33 0.47,0.09 0.95,0.18 1.42,0.19 0.48,0 0.96,-0.08 1.43,-0.16 0.48,-0.08 0.95,-0.27 1.43,-0.32 0.48,-0.06 0.95,0.03 1.43,0.01 0.47,-0.02 0.95,-0.09 1.43,-0.13 0.47,-0.05 0.95,-0.14 1.42,-0.13 0.48,0 0.96,0.12 1.43,0.16 0.48,0.03 0.95,0.08 1.43,0.06 0.48,-0.02 0.95,-0.17 1.43,-0.18 0.47,-0.01 0.95,0.07 1.43,0.12 0.47,0.04 0.95,0.1 1.43,0.14 0.47,0.04 0.95,0.04 1.42,0.1 0.48,0.05 0.96,0.21 1.43,0.24 0.48,0.03 0.95,-0.08 1.43,-0.06 0.48,0.01 0.95,0.15 1.43,0.16 0.47,0.01 0.95,-0.05 1.43,-0.1 0.47,-0.05 0.95,-0.14 1.42,-0.2 0.48,-0.06 0.96,-0.11 1.43,-0.16 0.48,-0.04 0.95,-0.08 1.43,-0.1 0.48,-0.02 0.95,-0.06 1.43,-0.01 0.47,0.06 0.95,0.36 1.43,0.33 0.47,-0.03 0.95,-0.51 1.42,-0.51 0.48,0 0.96,0.5 1.43,0.53 0.48,0.04 0.95,-0.26 1.43,-0.31 0.48,-0.06 0.95,-0.01 1.43,-0.03 0.47,-0.02 0.95,-0.06 1.43,-0.1 0.47,-0.03 0.95,-0.11 1.42,-0.1 0.48,0.01 0.96,0.08 1.43,0.15 0.48,0.07 0.95,0.21 1.43,0.28 0.48,0.06 0.95,0.06 1.43,0.08 0.47,0.03 0.95,0.02 1.43,0.04 0.47,0.03 0.95,0 1.42,0.14 0.48,0.13 0.96,0.52 1.43,0.66 0.48,0.14 0.95,0.04 1.43,0.18 0.48,0.13 0.95,0.52 1.43,0.65 0.47,0.13 0.95,0.14 1.43,0.11 0.47,-0.03 0.95,-0.26 1.42,-0.29 0.48,-0.02 0.96,0.11 1.43,0.14 0.48,0.04 0.95,0.05 1.43,0.06 0.48,0.02 0.95,0.15 1.43,0.04 0.47,-0.12 0.95,-0.61 1.43,-0.73 0.47,-0.12 0.95,0.09 1.42,0.02 0.48,-0.08 0.96,-0.44 1.43,-0.49 0.48,-0.05 0.95,0.11 1.43,0.17 0.48,0.06 0.95,0.11 1.43,0.17 0.47,0.07 0.95,0.19 1.43,0.23 0.47,0.03 0.95,-0.05 1.42,-0.02 0.48,0.03 0.96,0.1 1.43,0.18 0.48,0.08 0.95,0.23 1.43,0.31 0.48,0.09 0.95,0.12 1.43,0.19 0.47,0.07 0.95,0.15 1.43,0.24 0.47,0.09 0.95,0.1 1.43,0.28 0.47,0.19 0.95,0.63 1.42,0.81 0.48,0.17 0.96,0.09 1.43,0.25 0.48,0.16 0.95,0.54 1.43,0.69 0.48,0.14 0.95,0.15 1.43,0.2 0.47,0.06 0.95,0.12 1.43,0.12 0.47,0.01 0.95,0 1.42,-0.1 0.48,-0.09 0.96,-0.47 1.43,-0.47 0.48,-0.01 0.95,0.24 1.43,0.44 0.48,0.2 0.95,0.59 1.43,0.78 0.47,0.19 0.95,0.24 1.43,0.37 0.47,0.13 0.95,0.26 1.42,0.41 0.48,0.15 0.96,0.15 1.43,0.47 0.48,0.33 0.95,1.18 1.43,1.49 0.48,0.31 0.95,0.18 1.43,0.37 0.47,0.19 0.95,0.59 1.43,0.77 0.47,0.18 0.95,0.19 1.42,0.29 0.48,0.11 0.96,0.27 1.43,0.34 0.48,0.07 0.95,-0.04 1.43,0.1 0.48,0.15 0.95,0.51 1.43,0.75 0.47,0.23 0.95,0.34 1.43,0.67 0.47,0.32 0.95,0.89 1.42,1.27 0.48,0.39 0.96,0.51 1.43,1.04 0.48,0.53 0.95,1.68 1.43,2.14 0.48,0.46 0.95,0.26 1.43,0.63 0.47,0.38 0.95,1.21 1.43,1.61 0.47,0.4 0.95,0.35 1.42,0.8 0.48,0.46 0.96,1.53 1.43,1.93 0.48,0.41 0.95,0.87 1.43,0.48 0.48,-0.39 0.95,-2.54 1.43,-2.8 0.47,-0.27 0.95,0.83 1.43,1.22 0.47,0.38 0.95,0.68 1.42,1.09 0.48,0.41 0.96,0.58 1.43,1.37 0.48,0.79 0.95,2.64 1.43,3.36 0.48,0.73 0.95,0.52 1.43,0.99 0.47,0.48 0.95,1.43 1.43,1.86 0.47,0.44 0.95,0.67 1.42,0.73 0.48,0.07 0.96,-0.52 1.43,-0.36 0.48,0.16 0.95,0.68 1.43,1.34 0.48,0.65 0.95,1.99 1.43,2.59 0.47,0.59 0.95,0.52 1.43,0.95 0.47,0.44 0.95,1.13 1.42,1.66 0.48,0.53 0.96,1.16 1.43,1.54 0.48,0.38 0.96,0.35 1.43,0.75 0.48,0.4 0.95,1.14 1.43,1.64 0.48,0.5 0.95,0.85 1.43,1.36 0.47,0.51 0.95,1.12 1.43,1.68 0.47,0.55 0.95,1.11 1.42,1.66 0.48,0.56 0.96,1.09 1.43,1.67 0.48,0.58 0.95,1.37 1.43,1.8 0.48,0.42 0.95,0.33 1.43,0.73 0.47,0.39 0.95,1.13 1.43,1.66 0.47,0.53 0.95,0.96 1.42,1.5 0.48,0.53 0.96,1.15 1.43,1.73 0.48,0.58 0.95,1.05 1.43,1.73 0.48,0.67 0.95,1.67 1.43,2.32 0.47,0.65 0.95,1.05 1.43,1.58 0.47,0.53 0.95,1.2 1.42,1.59 0.48,0.39 0.96,0.48 1.43,0.76 0.48,0.28 0.95,0.63 1.43,0.92 0.48,0.29 0.95,0.58 1.43,0.8 0.47,0.23 0.95,0.27 1.43,0.55 0.47,0.28 0.95,0.78 1.42,1.12 0.48,0.33 0.96,0.54 1.43,0.91 0.48,0.38 0.95,0.93 1.43,1.33 0.48,0.41 0.95,0.73 1.43,1.12 0.47,0.39 0.95,0.9 1.43,1.23 0.47,0.33 0.95,0.49 1.42,0.75 0.48,0.25 0.96,0.52 1.43,0.8 0.48,0.28 0.95,0.66 1.43,0.89 0.48,0.24 0.95,0.43 1.43,0.52 0.47,0.09 0.95,-0.03 1.43,0.04 0.47,0.06 0.95,0.3 1.42,0.35 0.48,0.05 0.96,-0.02 1.43,-0.04 0.48,-0.03 0.95,-0.1 1.43,-0.11 0.48,-0.01 0.95,0.05 1.43,0.05 0.47,0 0.95,-0.05 1.43,-0.06 0.47,0 0.95,0.06 1.42,0.04 0.48,-0.02 0.96,-0.05 1.43,-0.16 0.48,-0.12 0.95,-0.47 1.43,-0.54 0.48,-0.06 0.95,0.19 1.43,0.16 0.47,-0.03 0.95,-0.18 1.43,-0.33 0.47,-0.14 0.95,-0.31 1.42,-0.53 0.48,-0.23 0.96,-0.57 1.43,-0.82 0.48,-0.25 0.95,-0.47 1.43,-0.7 0.48,-0.23 0.95,-0.44 1.43,-0.68 0.48,-0.24 0.95,-0.47 1.43,-0.76 0.47,-0.28 0.95,-0.6 1.43,-0.93 0.47,-0.33 0.95,-0.53 1.42,-1.03 0.48,-0.49 0.96,-1.4 1.43,-1.93 0.48,-0.53 0.95,-0.95 1.43,-1.23 0.48,-0.29 0.95,-0.22 1.43,-0.47 0.47,-0.25 0.95,-0.81 1.43,-1.03 0.47,-0.23 0.95,-0.03 1.42,-0.31 0.48,-0.28 0.96,-1.22 1.43,-1.37 0.48,-0.15 0.95,0.59 1.43,0.49 0.48,-0.1 0.95,-0.84 1.43,-1.09 0.47,-0.25 0.95,-0.25 1.43,-0.42 0.47,-0.17 0.95,-0.32 1.42,-0.6 0.48,-0.28 0.96,-0.77 1.43,-1.08 0.48,-0.31 0.95,-0.47 1.43,-0.78 0.48,-0.3 0.95,-0.69 1.43,-1.06 0.47,-0.37 0.95,-0.76 1.43,-1.17 0.47,-0.4 0.95,-0.84 1.42,-1.25 0.48,-0.42 0.96,-0.86 1.43,-1.25 0.48,-0.38 0.95,-0.76 1.43,-1.08 0.48,-0.32 0.95,-0.48 1.43,-0.82 0.47,-0.35 0.95,-0.88 1.43,-1.26 0.47,-0.37 0.95,-0.64 1.42,-1.01 0.48,-0.36 0.96,-0.83 1.43,-1.17 0.48,-0.35 0.95,-0.58 1.43,-0.9 0.48,-0.32 0.95,-0.82 1.43,-1.03 0.47,-0.22 0.95,-0.17 1.43,-0.25"
           style="fill:none;stroke:#fdc22a;stroke-width:1.5;stroke-linecap:round;stroke-linejoin:round;stroke-miterlimit:10;stroke-dasharray:none;stroke-opacity:1"
           id="path54"
           inkscape:connector-curvature="0" /></g></g><g
       id="g56"><g
         id="g58"
         clip-path="url(#clipPath62)"><path
           d="m 77.417,661.53 c 0.476,-0.1 0.952,-0.13 1.428,-0.29 0.476,-0.17 0.952,-0.48 1.428,-0.7 0.476,-0.21 0.952,-0.29 1.428,-0.6 0.476,-0.32 0.952,-0.98 1.428,-1.29 0.476,-0.31 0.952,-0.23 1.428,-0.56 0.476,-0.34 0.952,-1.05 1.428,-1.45 0.476,-0.39 0.952,-0.66 1.428,-0.91 0.476,-0.24 0.952,-0.38 1.428,-0.54 0.476,-0.17 0.952,-0.31 1.428,-0.44 0.476,-0.13 0.952,-0.22 1.428,-0.33 0.476,-0.12 0.952,-0.23 1.428,-0.38 0.476,-0.15 0.952,-0.36 1.428,-0.51 0.476,-0.16 0.952,-0.33 1.428,-0.41 0.476,-0.08 0.952,-0.03 1.428,-0.05 0.476,-0.03 0.952,-0.12 1.428,-0.08 0.476,0.03 0.952,0.3 1.433,0.28 0.47,-0.02 0.95,-0.33 1.42,-0.39 0.48,-0.06 0.96,0.08 1.43,0.02 0.48,-0.06 0.95,-0.31 1.43,-0.37 0.48,-0.07 0.95,0.05 1.43,0 0.47,-0.06 0.95,-0.22 1.43,-0.33 0.47,-0.1 0.95,-0.17 1.42,-0.3 0.48,-0.13 0.96,-0.29 1.43,-0.49 0.48,-0.19 0.95,-0.54 1.43,-0.69 0.48,-0.16 0.95,-0.11 1.43,-0.25 0.47,-0.14 0.95,-0.46 1.43,-0.6 0.47,-0.13 0.95,-0.17 1.42,-0.23 0.48,-0.07 0.96,-0.1 1.43,-0.16 0.48,-0.05 0.95,0.21 1.43,-0.18 0.48,-0.4 0.95,-1.78 1.43,-2.17 0.47,-0.39 0.95,0.11 1.43,-0.16 0.47,-0.28 0.95,-1.19 1.42,-1.47 0.48,-0.28 0.96,0 1.43,-0.22 0.48,-0.22 0.95,-0.8 1.43,-1.1 0.48,-0.29 0.95,-0.53 1.43,-0.67 0.47,-0.14 0.95,-0.03 1.43,-0.18 0.47,-0.16 0.95,-0.62 1.42,-0.75 0.48,-0.12 0.96,-0.02 1.43,0 0.48,0.03 0.95,-0.01 1.43,0.15 0.48,0.16 0.95,0.68 1.43,0.82 0.47,0.14 0.95,-0.04 1.43,0.03 0.47,0.07 0.95,0.34 1.42,0.39 0.48,0.05 0.96,-0.08 1.43,-0.08 0.48,0 0.95,0.14 1.43,0.05 0.48,-0.09 0.95,-0.51 1.43,-0.59 0.47,-0.08 0.95,0.09 1.43,0.11 0.47,0.03 0.95,0.01 1.42,0.04 0.48,0.02 0.96,0.12 1.43,0.09 0.48,-0.02 0.95,-0.2 1.43,-0.26 0.48,-0.06 0.95,-0.11 1.43,-0.1 0.48,0.02 0.95,0.1 1.43,0.19 0.47,0.09 0.95,0.28 1.43,0.36 0.47,0.08 0.95,-0.06 1.42,0.14 0.48,0.2 0.96,0.79 1.43,1.05 0.48,0.27 0.95,0.42 1.43,0.53 0.48,0.11 0.95,-0.04 1.43,0.13 0.47,0.17 0.95,0.71 1.43,0.91 0.47,0.19 0.95,0.13 1.42,0.26 0.48,0.13 0.96,0.36 1.43,0.52 0.48,0.16 0.95,0.33 1.43,0.46 0.48,0.12 0.95,0.17 1.43,0.29 0.47,0.12 0.95,0.3 1.43,0.42 0.47,0.12 0.95,0.28 1.42,0.29 0.48,0.01 0.96,-0.24 1.43,-0.24 0.48,0 0.95,0.28 1.43,0.23 0.48,-0.05 0.95,-0.48 1.43,-0.53 0.47,-0.04 0.95,0.45 1.43,0.28 0.47,-0.18 0.95,-1.17 1.42,-1.34 0.48,-0.17 0.96,0.45 1.43,0.32 0.48,-0.14 0.95,-0.99 1.43,-1.13 0.48,-0.13 0.95,0.36 1.43,0.32 0.47,-0.04 0.95,-0.5 1.43,-0.56 0.47,-0.07 0.95,0.09 1.42,0.18 0.48,0.1 0.96,0.47 1.43,0.39 0.48,-0.08 0.95,-0.5 1.43,-0.86 0.48,-0.37 0.95,-0.86 1.43,-1.32 0.47,-0.45 0.95,-0.82 1.43,-1.39 0.47,-0.57 0.95,-1.45 1.42,-2.01 0.48,-0.55 0.96,-0.91 1.43,-1.32 0.48,-0.42 0.95,-0.76 1.43,-1.17 0.48,-0.41 0.95,-0.96 1.43,-1.3 0.47,-0.35 0.95,-0.27 1.43,-0.77 0.47,-0.5 0.95,-1.65 1.42,-2.22 0.48,-0.57 0.96,-0.73 1.43,-1.18 0.48,-0.45 0.95,-1.1 1.43,-1.52 0.48,-0.42 0.95,-0.71 1.43,-1 0.47,-0.28 0.95,-0.44 1.43,-0.68 0.47,-0.25 0.95,-0.44 1.42,-0.77 0.48,-0.32 0.96,-0.54 1.43,-1.18 0.48,-0.64 0.95,-1.75 1.43,-2.67 0.48,-0.93 0.95,-2.14 1.43,-2.89 0.47,-0.75 0.95,-1.05 1.43,-1.61 0.47,-0.56 0.95,-1.29 1.43,-1.76 0.47,-0.46 0.95,-0.56 1.42,-1.04 0.48,-0.47 0.96,-1.41 1.43,-1.83 0.48,-0.42 0.95,-0.57 1.43,-0.67 0.48,-0.1 0.95,0.3 1.43,0.08 0.47,-0.21 0.95,-1 1.43,-1.35 0.47,-0.35 0.95,-0.27 1.42,-0.73 0.48,-0.45 0.96,-1.47 1.43,-1.98 0.48,-0.52 0.95,-0.8 1.43,-1.09 0.48,-0.29 0.95,-0.45 1.43,-0.64 0.47,-0.2 0.95,-0.38 1.43,-0.55 0.47,-0.18 0.95,-0.18 1.42,-0.51 0.48,-0.32 0.96,-1.01 1.43,-1.45 0.48,-0.45 0.95,-0.55 1.43,-1.23 0.48,-0.69 0.95,-2.27 1.43,-2.89 0.47,-0.62 0.95,-0.67 1.43,-0.82 0.47,-0.15 0.95,0.04 1.42,-0.08 0.48,-0.12 0.96,-0.53 1.43,-0.65 0.48,-0.12 0.95,-0.01 1.43,-0.06 0.48,-0.05 0.95,0 1.43,-0.25 0.47,-0.24 0.95,-0.93 1.43,-1.21 0.47,-0.29 0.95,-0.51 1.42,-0.49 0.48,0.02 0.96,0.58 1.43,0.62 0.48,0.04 0.95,-0.33 1.43,-0.4 0.48,-0.08 0.95,0.04 1.43,-0.02 0.47,-0.07 0.95,-0.28 1.43,-0.38 0.47,-0.1 0.95,-0.22 1.42,-0.23 0.48,-0.02 0.96,0.09 1.43,0.15 0.48,0.06 0.95,0.51 1.43,0.23 0.48,-0.28 0.95,-1.78 1.43,-1.92 0.47,-0.14 0.95,0.91 1.43,1.08 0.47,0.17 0.95,-0.02 1.42,-0.07 0.48,-0.04 0.96,-0.21 1.43,-0.2 0.48,0 0.95,0.21 1.43,0.23 0.48,0.03 0.95,0.15 1.43,-0.09 0.47,-0.24 0.95,-1.15 1.43,-1.35 0.47,-0.2 0.95,0.42 1.42,0.16 0.48,-0.26 0.96,-1.44 1.43,-1.73 0.48,-0.3 0.95,-0.22 1.43,-0.05 0.48,0.17 0.95,0.89 1.43,1.07 0.47,0.18 0.95,0.23 1.43,0.01 0.47,-0.21 0.95,-1.11 1.43,-1.3 0.47,-0.2 0.95,-0.01 1.42,0.12 0.48,0.12 0.96,0.58 1.43,0.65 0.48,0.07 0.95,-0.02 1.43,-0.22 0.48,-0.21 0.95,-0.87 1.43,-1.03 0.47,-0.15 0.95,-0.03 1.43,0.07 0.47,0.1 0.95,0.42 1.42,0.53 0.48,0.11 0.96,0.42 1.43,0.13 0.48,-0.29 0.95,-1.59 1.43,-1.85 0.48,-0.26 0.95,0.38 1.43,0.29 0.47,-0.1 0.95,-0.75 1.43,-0.85 0.47,-0.11 0.95,0.03 1.42,0.21 0.48,0.18 0.96,0.7 1.43,0.86 0.48,0.16 0.95,0.21 1.43,0.1 0.48,-0.11 0.95,-0.28 1.43,-0.75 0.47,-0.48 0.95,-1.68 1.43,-2.08 0.47,-0.41 0.95,-0.33 1.42,-0.34 0.48,0 0.96,0.32 1.43,0.3 0.48,-0.02 0.95,-0.36 1.43,-0.42 0.48,-0.07 0.95,-0.05 1.43,0.02 0.47,0.07 0.95,0.27 1.43,0.38 0.47,0.11 0.95,0.44 1.42,0.27 0.48,-0.18 0.96,-1.15 1.43,-1.33 0.48,-0.19 0.95,0.24 1.43,0.21 0.48,-0.02 0.95,-0.34 1.43,-0.36 0.47,-0.02 0.95,0.34 1.43,0.23 0.47,-0.11 0.95,-0.79 1.42,-0.89 0.48,-0.1 0.96,0.27 1.43,0.31 0.48,0.03 0.95,-0.15 1.43,-0.1 0.48,0.06 0.95,0.38 1.43,0.43 0.47,0.05 0.95,-0.15 1.43,-0.12 0.47,0.02 0.95,0.03 1.42,0.29 0.48,0.26 0.96,1.1 1.43,1.25 0.48,0.16 0.95,-0.31 1.43,-0.32 0.48,-0.01 0.95,0.16 1.43,0.25 0.47,0.1 0.95,0.3 1.43,0.33 0.47,0.04 0.95,-0.2 1.42,-0.12 0.48,0.08 0.96,0.46 1.43,0.61 0.48,0.14 0.95,0.13 1.43,0.24 0.48,0.12 0.95,0.31 1.43,0.46 0.47,0.15 0.95,0.25 1.43,0.47 0.47,0.21 0.95,0.58 1.43,0.82 0.47,0.23 0.95,0.39 1.42,0.58 0.48,0.19 0.96,0.55 1.43,0.54 0.48,-0.01 0.95,-0.6 1.43,-0.59 0.48,0.01 0.95,0.43 1.43,0.64 0.47,0.22 0.95,0.47 1.43,0.66 0.47,0.2 0.95,0.35 1.42,0.52 0.48,0.16 0.96,0.27 1.43,0.46 0.48,0.19 0.95,0.66 1.43,0.66 0.48,0.01 0.95,-0.65 1.43,-0.65 0.47,0 0.95,0.52 1.43,0.67 0.47,0.16 0.95,0.1 1.42,0.26 0.48,0.16 0.96,0.45 1.43,0.72 0.48,0.27 0.95,0.58 1.43,0.89 0.48,0.3 0.95,0.64 1.43,0.95 0.47,0.31 0.95,0.58 1.43,0.88 0.47,0.3 0.95,0.61 1.42,0.93 0.48,0.33 0.96,0.68 1.43,1.02 0.48,0.34 0.95,0.69 1.43,1.02 0.48,0.34 0.95,0.66 1.43,0.99 0.47,0.34 0.95,0.61 1.43,1.01 0.47,0.4 0.95,1.04 1.42,1.41 0.48,0.38 0.96,0.41 1.43,0.83 0.48,0.42 0.95,1.09 1.43,1.72 0.48,0.63 0.95,1.61 1.43,2.07 0.47,0.45 0.95,0.38 1.43,0.66 0.47,0.28 0.95,0.68 1.42,1.03 0.48,0.34 0.96,0.6 1.43,1.02 0.15,0.13 1.29,0.48 1.43,1.51 0.48,3.38 0.95,15.36 1.43,18.78 0.15,1.11 1.27,1.52 1.43,1.72 0.47,0.64 0.95,1.58 1.42,2.09 0.48,0.52 0.96,0.43 1.43,0.99 0.48,0.56 0.95,1.65 1.43,2.38 0.48,0.72 0.95,1.49 1.43,1.97 0.47,0.48 0.95,0.44 1.43,0.91 0.47,0.47 0.95,1.17 1.42,1.91 0.48,0.74 0.96,1.69 1.43,2.55 0.48,0.85 0.95,1.74 1.43,2.6 0.48,0.85 0.95,1.66 1.43,2.52 0.47,0.85 0.95,1.68 1.43,2.62 0.47,0.94 0.95,2.1 1.42,3.02 0.48,0.93 0.96,1.75 1.43,2.53 0.48,0.78 0.96,1.57 1.43,2.15 0.48,0.58 0.95,0.7 1.43,1.33 0.48,0.63 0.95,1.69 1.43,2.43 0.47,0.75 0.95,1.42 1.43,2.02 0.47,0.61 0.95,1.05 1.42,1.62 0.48,0.57 0.96,1.4 1.43,1.8 0.48,0.4 0.95,0.24 1.43,0.6 0.48,0.37 0.95,1.17 1.43,1.58 0.47,0.41 0.95,0.58 1.43,0.89 0.47,0.3 0.95,0.64 1.42,0.95 0.48,0.32 0.96,0.57 1.43,0.95 0.48,0.38 0.95,1.04 1.43,1.33 0.48,0.3 0.95,0.18 1.43,0.43 0.47,0.26 0.95,0.83 1.43,1.13 0.47,0.3 0.95,0.34 1.42,0.68 0.48,0.33 0.96,0.95 1.43,1.33 0.48,0.38 0.95,0.53 1.43,0.95 0.48,0.41 0.95,1 1.43,1.53 0.47,0.54 0.95,1.15 1.43,1.67 0.47,0.52 0.95,0.9 1.42,1.47 0.48,0.58 0.96,1.59 1.43,1.98 0.48,0.38 0.95,0.07 1.43,0.35 0.48,0.28 0.95,0.96 1.43,1.34 0.47,0.39 0.95,0.6 1.43,0.98 0.47,0.38 0.95,0.88 1.42,1.29 0.48,0.4 0.96,0.86 1.43,1.14 0.48,0.28 0.95,0.47 1.43,0.54 0.48,0.07 0.95,-0.12 1.43,-0.12 0.47,0 0.95,0.11 1.43,0.11 0.47,-0.01 0.95,-0.02 1.42,-0.14 0.48,-0.12 0.96,-0.32 1.43,-0.59 0.48,-0.26 0.95,-0.61 1.43,-0.99 0.48,-0.39 0.95,-0.94 1.43,-1.34 0.47,-0.41 0.95,-0.7 1.43,-1.09 0.47,-0.39 0.95,-0.95 1.42,-1.26 0.48,-0.3 0.96,-0.32 1.43,-0.56 0.48,-0.24 0.95,-0.62 1.43,-0.89 0.48,-0.28 0.95,-0.5 1.43,-0.74 0.47,-0.25 0.95,-0.49 1.43,-0.74 0.47,-0.25 0.95,-0.57 1.42,-0.78 0.48,-0.2 0.96,-0.19 1.43,-0.45 0.48,-0.27 0.95,-0.78 1.43,-1.13 0.48,-0.35 0.95,-0.7 1.43,-0.97 0.48,-0.26 0.95,-0.32 1.43,-0.62 0.47,-0.3 0.95,-0.89 1.43,-1.18 0.47,-0.29 0.95,-0.27 1.42,-0.56 0.48,-0.3 0.96,-0.85 1.43,-1.22 0.48,-0.37 0.95,-0.52 1.43,-0.99 0.48,-0.46 0.95,-1.34 1.43,-1.79 0.47,-0.45 0.95,-0.54 1.43,-0.91 0.47,-0.37 0.95,-0.91 1.42,-1.3 0.48,-0.39 0.96,-0.75 1.43,-1.04 0.48,-0.28 0.95,-0.4 1.43,-0.68 0.48,-0.29 0.95,-0.84 1.43,-1.03 0.47,-0.19 0.95,0.07 1.43,-0.11 0.47,-0.18 0.95,-0.6 1.42,-0.98 0.48,-0.39 0.96,-0.96 1.43,-1.34 0.48,-0.37 0.95,-0.69 1.43,-0.91 0.48,-0.22 0.95,-0.24 1.43,-0.41 0.47,-0.17 0.95,-0.4 1.43,-0.61 0.47,-0.21 0.95,-0.24 1.42,-0.64 0.48,-0.4 0.96,-1.07 1.43,-1.77 0.48,-0.7 0.95,-1.72 1.43,-2.42 0.48,-0.7 0.95,-1.09 1.43,-1.77 0.47,-0.68 0.95,-1.75 1.43,-2.3 0.47,-0.55 0.95,-0.65 1.42,-1 0.48,-0.34 0.96,-0.75 1.43,-1.07 0.48,-0.31 0.95,-0.56 1.43,-0.84 0.48,-0.28 0.95,-0.62 1.43,-0.84 0.47,-0.22 0.95,-0.32 1.43,-0.47"
           style="fill:none;stroke:#fda706;stroke-width:1.5;stroke-linecap:round;stroke-linejoin:round;stroke-miterlimit:10;stroke-dasharray:none;stroke-opacity:1"
           id="path64"
           inkscape:connector-curvature="0" /></g></g><g
       id="g66"><g
         id="g68"
         clip-path="url(#clipPath72)"><path
           d="m 77.417,655.8 1.423,-0.72 1.44,-0.84 1.44,-0.72 1.44,-0.24 1.44,-0.6 1.44,-0.12 1.32,-0.6 1.44,-1.68 1.44,-0.36 1.44,-1.44 1.44,-0.36 1.44,0.12 1.44,-0.48 1.44,0.12 1.44,-0.24 1.44,-0.36 1.32,-0.24 1.44,0.24 1.44,-0.36 1.44,0.24 1.44,-0.24 1.44,0.36 1.44,-0.24 1.44,-0.24 1.44,-0.12 h 1.44 l 1.32,-0.24 h 1.44 l 1.44,0.12 1.44,0.84 1.44,-0.24 1.44,-0.12 1.44,-0.24 1.44,-0.24 1.44,-0.24 1.44,0.36 1.32,-0.24 1.44,-0.36 1.44,-0.24 1.44,-1.44 1.44,-0.24 1.44,-0.6 1.44,-0.12 1.44,-0.12 1.44,-0.12 1.44,-0.12 h 1.32 l 1.44,-0.24 h 1.44 l 1.44,-0.6 1.44,0.12 1.44,-0.12 1.44,0.12 h 1.44 l 1.44,0.24 h 1.44 l 1.32,0.24 1.44,0.48 1.44,0.36 1.44,0.84 1.44,0.24 1.44,0.6 h 1.44 l 1.44,0.12 1.44,0.24 1.44,0.12 1.32,0.24 h 1.44 1.44 l 1.44,0.6 1.44,0.48 1.44,0.96 1.44,0.84 1.44,0.72 1.44,0.48 1.44,0.12 1.32,0.48 1.44,0.48 1.44,0.36 1.44,0.24 h 1.44 l 1.44,0.24 1.44,-0.12 1.44,-0.36 1.44,-0.48 1.44,-1.44 1.32,-1.32 1.44,-1.32 1.44,-1.44 1.44,-1.44 1.44,-1.68 1.44,-1.2 1.44,-1.44 1.44,-1.2 1.44,-1.56 1.44,-2.4 1.32,-1.56 1.44,-0.72 1.44,-1.8 1.44,-0.84 1.44,-3.48 1.44,-4.56 1.44,-3.24 1.44,-2.64 1.44,-2.04 1.44,-1.56 1.32,-0.96 1.44,-0.72 1.44,-0.72 1.44,-0.6 1.44,-1.2 1.44,-2.16 1.44,-1.2 1.44,0.12 1.44,-0.96 1.44,-3.6 1.32,-1.2 1.44,-2.16 1.44,-0.84 1.44,0.72 1.44,-0.84 1.44,-0.96 1.44,-1.2 1.44,-0.24 1.44,-0.96 1.44,0.6 1.32,-1.32 1.44,0.72 1.44,-1.2 1.44,0.6 1.44,-0.72 1.44,1.2 1.44,-0.72 1.44,-0.48 1.44,-0.84 1.44,0.48 1.32,-1.68 1.44,-0.84 1.44,-0.72 1.44,-0.6 1.44,-0.6 1.44,-0.48 1.44,-1.08 1.44,-0.6 1.44,-0.96 1.44,0.84 1.32,-0.24 1.44,-1.2 1.44,-0.36 1.44,-0.24 1.44,-0.48 1.44,-0.6 h 1.44 l 1.44,0.48 1.44,0.12 1.44,-0.36 1.44,-0.24 1.32,-0.36 1.44,-0.12 1.44,-0.48 1.44,-0.24 1.44,0.48 1.44,-0.12 1.44,0.24 1.44,-0.72 1.44,-0.46 1.44,-0.02 1.32,1.44 1.44,-0.12 1.44,0.36 1.44,-0.12 1.44,-0.48 h 1.44 l 1.44,-0.24 1.44,0.24 h 1.44 l 1.44,0.24 1.32,-0.12 1.44,1.32 1.44,0.12 1.44,0.6 1.44,1.32 1.44,-0.12 1.44,1.92 1.44,-0.36 1.44,0.6 1.44,-0.12 1.32,1.32 1.44,-0.12 1.44,0.84 1.44,0.48 1.44,1.8 1.44,0.36 1.44,1.92 1.44,0.72 1.44,1.44 1.44,0.72 1.32,0.96 1.44,1.08 1.44,1.08 1.44,1.2 1.44,1.92 1.44,1.92 1.44,5.88 1.44,1.56 1.44,3.12 1.44,2.16 1.32,3.48 1.44,2.16 1.44,3.36 1.44,2.28 1.44,3.36 1.44,2.28 1.44,1.56 1.44,2.4 1.44,3.48 1.44,3.12 1.32,2.88 1.44,3.72 1.44,3.36 1.44,3.6 1.44,2.88 1.44,3.6 1.44,0.96 1.44,2.16 1.44,2.88 1.44,2.16 1.32,2.64 1.44,2.04 1.44,2.76 1.44,2.04 1.44,1.8 1.44,1.44 1.44,1.44 1.44,0.72 1.44,0.24 1.44,-0.12 1.32,0.36 h 1.44 l 1.44,0.36 1.44,0.12 h 1.44 1.44 1.44 1.44 l 1.44,0.48 1.44,0.12 1.32,0.25 1.44,-0.25 1.44,-0.12 1.44,-0.72 1.44,-1.2 1.44,-0.6 1.44,-0.48 1.44,-0.6 1.44,-0.6 1.44,-0.6 1.32,-0.6 1.44,-0.72 1.44,-0.96 1.44,-0.96 1.44,-1.2 1.44,-1.08 1.44,-1.32 1.44,-1.08 1.44,-1.2 1.44,-0.96 1.32,-1.08 1.44,-0.96 1.44,-0.72 1.44,-1.08 1.44,-0.48 1.44,-0.96 1.44,-0.6 1.44,-0.72 1.44,-1.56 1.44,-0.84 1.32,-0.48 1.44,-0.96 1.44,-0.12 1.44,-0.84 1.44,-1.44 1.44,-0.84 1.44,-1.68 1.44,-0.72 1.44,-1.56 1.39,-0.6"
           style="fill:none;stroke:#fb8104;stroke-width:1.5;stroke-linecap:round;stroke-linejoin:round;stroke-miterlimit:10;stroke-dasharray:none;stroke-opacity:1"
           id="path74"
           inkscape:connector-curvature="0" /></g></g><g
       id="g76"><g
         id="g78"
         clip-path="url(#clipPath82)"><path
           d="m 77.417,668.64 1.423,-0.6 1.44,-0.24 h 1.44 l 1.44,-0.84 1.44,-0.12 1.44,-0.24 1.32,-0.48 1.44,-0.6 1.44,-0.48 1.44,-0.6 1.44,-0.48 1.44,-0.96 1.44,-0.6 h 1.44 l 1.44,-0.48 1.44,-0.36 1.32,-0.12 1.44,-0.36 h 1.44 l 1.44,0.12 1.44,-0.12 h 1.44 l 1.44,-0.12 1.44,-0.48 1.44,-0.6 1.44,-0.36 1.32,-0.36 1.44,-0.48 1.44,-0.24 h 1.44 l 1.44,-0.12 1.44,-0.36 1.44,-0.24 1.44,-0.6 1.44,-0.36 1.44,-0.24 1.32,-0.36 1.44,-0.36 1.44,-0.24 1.44,-0.24 1.44,0.12 1.44,0.6 1.44,0.12 1.44,0.48 1.44,0.36 1.44,0.6 1.32,0.6 1.44,0.72 1.44,0.36 1.44,0.84 1.44,0.72 1.44,0.36 1.44,0.36 h 1.44 l 1.44,0.24 h 1.44 l 1.32,0.24 1.44,0.36 1.44,0.12 h 1.44 1.44 l 1.44,0.48 1.44,-0.24 1.44,-0.12 1.44,0.24 1.44,-0.24 1.32,0.48 1.44,0.48 1.44,0.24 1.44,1.32 1.44,-0.96 1.44,0.84 1.44,0.72 1.44,1.2 1.44,0.84 1.44,0.6 1.32,0.48 1.44,1.44 1.44,-0.12 1.44,0.48 1.44,0.12 h 1.44 l 1.44,-0.12 1.44,-0.24 1.44,-0.24 h 1.44 l 1.32,-1.08 1.44,-0.96 1.44,-1.08 1.44,-0.96 1.44,-1.8 1.44,-1.32 1.44,-1.56 1.44,-1.8 1.44,-0.84 1.44,-2.04 1.32,-0.84 1.44,-0.36 1.44,-1.32 1.44,-2.52 1.44,-2.76 1.44,-3.48 1.44,-2.64 1.44,-1.56 1.44,-2.52 1.44,-2.76 1.32,-0.96 1.44,-0.72 1.44,-0.96 1.44,-0.72 1.44,-1.32 1.44,-1.2 1.44,-0.96 1.44,-0.84 1.44,-0.96 1.44,-0.84 1.32,-0.84 1.44,-0.48 1.44,-0.84 1.44,-0.12 1.44,-0.36 1.44,-0.84 1.44,-1.08 1.44,-0.36 1.44,-1.2 1.44,-1.2 1.32,-0.84 1.44,-1.32 1.44,-0.36 1.44,-0.48 1.44,-1.68 1.44,-0.96 1.44,-1.2 1.44,-1.2 1.44,-1.2 1.44,-0.12 1.32,-0.36 1.44,-1.08 1.44,-0.48 1.44,-0.72 1.44,-0.72 1.44,-1.68 1.44,-0.72 1.44,-1.2 1.44,-1.68 1.44,-1.2 1.32,-0.24 1.44,-0.84 1.44,-0.36 1.44,-0.84 1.44,-1.08 1.44,0.24 1.44,0.48 1.44,-0.84 1.44,-1.8 1.44,-1.68 1.44,1.08 1.32,1.44 1.44,-1.44 1.44,-0.12 1.44,-0.48 1.44,0.48 1.44,0.36 1.44,1.32 h 1.44 l 1.44,0.24 1.44,-1.8 1.32,-2.64 1.44,-0.96 1.44,-0.12 1.44,-0.6 1.44,-0.48 1.44,1.56 1.44,0.72 1.44,-1.2 1.44,0.96 1.44,-1.68 1.32,-2.72 1.44,2.48 1.44,2.52 1.44,2.88 1.44,0.96 1.44,-1.08 1.44,-1.56 1.44,-0.12 1.44,0.84 1.44,0.96 1.32,1.68 1.44,-1.44 1.44,2.16 1.44,1.08 1.44,0.72 1.44,-0.12 1.44,-0.24 1.44,-1.32 1.44,-0.72 1.44,1.8 1.32,0.36 1.44,0.96 1.44,0.36 1.44,3 1.44,3.84 1.44,-0.6 1.44,1.08 1.44,0.72 1.44,3.84 1.44,0.72 1.32,0.96 1.44,4.2 1.44,2.28 1.44,2.64 1.44,3.96 1.44,3.36 1.44,3.72 1.44,2.52 1.44,2.52 1.44,3.12 1.32,3.12 1.44,3.72 1.44,3.24 1.44,3 1.44,2.16 1.44,2.4 1.44,2.16 1.44,1.92 1.44,1.56 1.44,1.68 1.32,1.68 1.44,1.8 1.44,1.92 1.44,1.08 1.44,1.44 1.44,1.44 1.44,0.84 1.44,1.08 1.44,0.72 1.44,0.36 1.32,0.48 1.44,0.24 1.44,0.16 1.44,-0.16 1.44,-0.36 1.44,0.24 1.44,0.12 1.44,-0.36 h 1.44 l 1.44,-0.48 1.32,-0.12 1.44,1.08 1.44,-0.24 h 1.44 l 1.44,-0.36 1.44,-0.48 1.44,-0.24 1.44,-0.12 1.44,-0.48 1.44,-0.24 1.32,-0.48 1.44,-0.36 1.44,-0.84 1.44,-0.72 1.44,-0.72 1.44,-0.84 1.44,-0.6 1.44,-1.56 1.44,-0.96 1.44,-1.2 1.32,-0.6 1.44,-0.48 1.44,-0.48 1.44,-0.48 1.44,-0.36 1.44,-0.24 1.44,-0.48 1.44,-0.6 1.44,-0.48 1.44,-0.72 1.32,-0.6 1.44,-0.72 1.44,-0.72 1.44,-0.72 1.44,-0.84 1.44,-0.84 1.44,-0.84 1.44,-0.6 1.44,-0.24 1.39,-0.24"
           style="fill:none;stroke:#ed6803;stroke-width:1.5;stroke-linecap:round;stroke-linejoin:round;stroke-miterlimit:10;stroke-dasharray:none;stroke-opacity:1"
           id="path84"
           inkscape:connector-curvature="0" /></g></g><g
       id="g86"><g
         id="g88"
         clip-path="url(#clipPath92)"><path
           d="m 77.417,648.72 1.423,-0.6 1.44,-0.24 1.44,-0.72 1.44,-0.96 1.44,-0.84 1.44,-0.48 1.32,-0.72 1.44,-0.36 1.44,-0.72 1.44,-0.24 1.44,-0.24 1.44,-0.24 1.44,-0.48 1.44,0.6 1.44,0.6 1.44,0.12 1.32,-0.36 1.44,0.24 1.44,0.12 1.44,-0.24 h 1.44 l 1.44,-0.48 1.44,-0.24 1.44,-0.48 1.44,-0.48 1.44,-0.12 1.32,-0.12 1.44,0.12 1.44,-0.24 h 1.44 1.44 1.44 l 1.44,0.24 1.44,0.24 1.44,-0.12 1.44,-0.12 1.32,0.48 1.44,1.2 1.44,0.48 1.44,0.36 h 1.44 l 1.44,-0.36 1.44,-0.12 1.44,-0.72 1.44,-0.36 1.44,-0.48 1.32,-0.24 h 1.44 l 1.44,0.24 1.44,0.24 h 1.44 1.44 l 1.44,-0.12 1.44,-0.36 1.44,-0.72 1.44,-0.48 1.32,-0.84 1.44,-0.48 h 1.44 l 1.44,-0.12 1.44,0.36 1.44,0.24 h 1.44 l 1.44,-0.24 1.44,0.12 1.44,-0.24 1.32,0.24 1.44,0.48 1.44,0.48 1.44,0.48 h 1.44 l 1.44,0.24 1.44,0.36 1.44,0.24 h 1.44 l 1.44,-0.36 1.32,-0.84 1.44,-0.6 1.44,-1.08 1.44,-1.2 1.44,-1.68 1.44,-1.68 1.44,-1.92 1.44,-2.76 1.44,-1.44 1.44,-2.28 1.32,-2.76 1.44,-2.76 1.44,-3.12 1.44,-3.24 1.44,-3.48 1.44,-2.4 1.44,-2.04 1.44,-1.56 1.44,-0.96 1.44,-2.4 1.32,-2.52 1.44,-4.08 1.44,-0.6 1.44,-0.96 1.44,-0.12 1.44,-0.48 1.44,-0.36 1.44,0.6 1.44,1.32 1.44,1.56 h 1.32 l 1.44,0.48 1.44,-1.44 1.44,-0.72 1.44,0.6 1.44,1.44 1.44,1.44 1.44,0.96 1.44,-0.48 1.44,-1.2 1.32,-0.48 1.44,-0.36 1.44,-0.6 1.44,-0.96 1.44,-1.56 1.44,-1.2 1.44,-0.6 h 1.44 l 1.44,0.12 1.44,-0.84 1.32,-0.6 1.44,-0.6 1.44,-0.72 1.44,-0.6 1.44,-0.24 1.44,-0.84 1.44,-0.6 1.44,-0.6 1.44,0.6 1.44,0.48 1.32,-0.48 1.44,-0.84 1.44,-1.2 1.44,-0.72 1.44,0.72 1.44,2.16 1.44,0.12 1.44,-0.6 1.44,-1.32 1.44,-1.44 h 1.32 l 1.44,0.24 1.44,-0.36 1.44,-1.92 1.44,-2.4 h 1.44 l 1.44,-0.36 1.44,0.84 1.44,1.68 1.44,-0.24 1.44,-2.28 1.32,-0.48 1.44,0.36 1.44,1.32 1.44,0.48 1.44,0.12 1.44,0.24 1.44,-1.68 1.44,-1.92 1.44,0.6 1.44,1.8 1.32,0.48 1.44,-0.84 h 1.44 l 1.44,0.24 1.44,-0.36 1.44,-0.24 1.44,-0.72 1.44,-0.6 1.44,-0.4 1.44,0.52 1.32,0.24 1.44,1.56 1.44,1.08 1.44,1.08 1.44,-0.48 1.44,1.2 1.44,0.12 1.44,-0.6 1.44,0.48 1.44,1.56 1.32,2.52 1.44,-0.84 1.44,-2.76 1.44,1.2 1.44,2.4 1.44,-0.84 1.44,0.12 1.44,2.16 1.44,2.64 1.44,3.12 1.32,-1.2 1.44,-1.56 1.44,-1.2 1.44,-0.48 1.44,0.48 1.44,0.72 1.44,3.48 1.44,5.16 1.44,1.68 1.44,0.6 1.32,1.32 1.44,1.2 1.44,1.32 1.44,3.12 1.44,1.68 1.44,-0.12 1.44,0.48 1.44,3.48 1.44,2.76 1.44,1.8 1.32,4.44 1.44,3.36 1.44,2.76 1.44,3.84 1.44,4.32 1.44,4.32 1.44,3.72 1.44,2.04 1.44,2.28 1.44,2.4 1.32,2.76 1.44,1.44 1.44,1.2 1.44,1.68 1.44,1.56 1.44,1.2 1.44,1.44 1.44,1.2 1.44,1.2 1.44,1.08 1.32,0.72 1.44,0.84 1.44,0.12 1.44,0.48 H 423 l 1.44,0.06 1.44,-0.18 1.44,-0.24 1.44,-0.36 1.44,-0.6 1.32,-0.48 1.44,-0.48 1.44,-0.48 1.44,-0.48 1.44,-0.24 1.44,-0.24 1.44,-0.36 1.44,-0.12 1.44,-0.12 1.44,-0.48 1.32,-0.72 1.44,-0.6 1.44,-0.48 1.44,-0.48 1.44,-0.6 1.44,-0.72 1.44,-0.72 1.44,-0.48 1.44,-0.24 1.44,-1.08 1.32,-0.72 1.44,-0.96 1.44,-0.96 1.44,-1.08 1.44,-0.6 1.44,-0.36 1.44,-0.84 1.44,-0.36 1.44,-0.72 1.44,-0.48 1.32,-0.84 1.44,-0.36 1.44,-1.2 1.44,-0.84 1.44,-0.96 1.44,-1.08 1.44,-0.96 1.44,-0.24 1.44,-0.48 1.39,-1.2"
           style="fill:none;stroke:#c64a02;stroke-width:1.5;stroke-linecap:round;stroke-linejoin:round;stroke-miterlimit:10;stroke-dasharray:none;stroke-opacity:1"
           id="path94"
           inkscape:connector-curvature="0" /></g></g><g
       id="g96"><g
         id="g98"
         clip-path="url(#clipPath102)"><path
           d="m 77.417,658.32 1.423,0.24 1.44,-0.24 1.44,-0.36 1.44,-0.12 1.44,-0.84 1.44,-0.48 1.32,0.48 1.44,0.36 h 1.44 l 1.44,0.36 1.44,-0.24 1.44,-0.24 1.44,-0.36 1.44,-0.12 1.44,-0.36 1.44,-0.96 1.32,-0.84 1.44,-1.32 1.44,-1.32 1.44,-1.32 1.44,-0.84 1.44,-0.6 1.44,-1.2 1.44,-1.08 1.44,-0.6 1.44,0.36 1.32,0.36 1.44,-0.24 1.44,0.6 1.44,0.72 1.44,0.36 h 1.44 l 1.44,0.36 H 126 l 1.44,0.24 1.44,0.48 1.32,1.08 1.44,0.96 1.44,0.84 1.44,0.84 1.44,0.36 1.44,0.24 1.44,-0.72 1.44,-0.12 1.44,-0.6 1.44,-0.72 1.32,-1.2 1.44,-0.6 1.44,-0.6 1.44,0.24 1.44,-0.12 1.44,-0.12 1.44,-0.36 1.44,0.24 1.44,-0.12 1.44,0.36 1.32,0.24 1.44,-0.12 1.44,0.24 1.44,0.48 1.44,0.36 1.44,0.12 1.44,0.24 1.44,0.36 h 1.44 l 1.44,0.84 1.32,-0.12 1.44,0.72 1.44,0.48 1.44,0.36 1.44,0.48 1.44,0.72 1.44,0.48 1.44,0.96 1.44,-0.12 1.44,-0.6 1.32,-0.84 1.44,-1.32 1.44,-1.2 1.44,-1.56 1.44,-2.16 1.44,-2.16 1.44,-2.52 1.44,-2.28 1.44,-2.52 1.44,-2.76 1.32,-2.64 1.44,-2.28 1.44,-3.36 1.44,-3.12 1.44,-3.6 1.44,-3.24 1.44,-2.16 1.44,-1.56 1.44,-0.84 1.44,-2.16 1.32,-2.28 1.44,0.72 1.44,-1.8 1.44,-1.8 1.44,-2.16 1.44,-0.6 1.44,-1.08 1.44,0.96 1.44,-1.56 1.44,-1.92 1.32,-1.68 1.44,0.12 1.44,-1.32 1.44,-1.08 1.44,-0.6 1.44,-1.32 1.44,-1.32 1.44,-0.6 h 1.44 l 1.44,-0.48 1.32,-1.2 1.44,-0.6 1.44,-1.2 1.44,-1.32 1.44,-0.48 1.44,0.84 1.44,-1.08 1.44,-3.96 1.44,-1.2 1.44,0.36 1.32,-0.84 1.44,-1.32 1.44,-0.72 1.44,0.12 1.44,-2.16 1.44,-2.52 1.44,-2.04 1.44,-0.12 1.44,-0.48 h 1.44 1.32 l 1.44,-0.36 1.44,-0.36 1.44,-1.56 1.44,-1.8 1.44,-0.36 1.44,-0.24 1.44,-1.44 h 1.44 l 1.44,2.04 1.32,-0.24 1.44,-1.08 1.44,-0.72 1.44,0.36 1.44,-0.6 1.44,-0.6 1.44,0.12 1.44,0.84 1.44,-1.2 1.44,-0.48 1.44,-0.84 1.32,0.6 1.44,0.12 1.44,-0.84 1.44,0.6 1.44,0.84 1.44,0.12 1.44,-0.84 1.44,-2.64 1.44,0.48 1.44,2.28 1.32,-0.72 1.44,-1.56 1.44,0.96 1.44,-0.84 1.44,-1.76 1.44,0.44 1.44,0.36 1.44,0.12 1.44,-0.48 1.44,1.2 1.32,-0.72 H 333 l 1.44,0.12 1.44,1.2 1.44,-0.12 1.44,0.48 1.44,0.36 1.44,-0.24 h 1.44 l 1.44,1.68 1.32,0.96 1.44,-0.84 1.44,-0.6 1.44,0.48 1.44,3 1.44,2.28 1.44,1.2 1.44,0.84 1.44,-0.36 1.44,0.6 1.32,1.2 1.44,0.72 1.44,0.84 1.44,-1.08 1.44,-0.36 1.44,1.92 1.44,2.16 1.44,6.96 1.44,3.36 1.44,1.92 1.32,0.12 1.44,1.08 1.44,1.92 1.44,4.68 1.44,4.68 1.44,7.32 1.44,4.92 1.44,1.92 1.44,2.16 1.44,3 1.32,2.88 1.44,4.44 1.44,3.36 1.44,4.2 1.44,3.84 1.44,3.36 1.44,3.12 1.44,2.88 1.44,3.12 1.44,3.36 1.32,2.76 1.44,2.64 1.44,1.68 1.44,2.04 1.44,1.8 1.44,1.8 1.44,1.08 1.44,0.96 1.44,1.44 1.44,0.96 1.32,1.2 1.44,0.48 1.44,0.6 1.44,0.12 1.44,0.45 1.44,0.03 1.44,-0.48 1.44,-0.48 1.44,-0.6 1.44,-0.12 1.32,-0.6 1.44,-0.12 1.44,-0.12 1.44,-0.36 1.44,-0.36 h 1.44 l 1.44,-0.36 1.44,-0.48 1.44,-0.6 1.44,-0.48 1.32,-0.48 1.44,-0.36 1.44,-0.72 1.44,-0.6 1.44,-0.6 1.44,-0.12 1.44,-0.12 1.44,-0.96 1.44,-1.2 1.44,-0.84 1.32,-0.96 1.44,-0.24 1.44,-0.48 1.44,-0.72 1.44,-0.12 1.44,-0.24 1.44,-0.12 1.44,-0.12 1.44,-0.48 1.44,-0.48 1.32,-0.24 1.44,-0.48 1.44,-0.72 1.44,-0.72 1.44,-0.96 1.44,-0.84 1.44,-1.2 1.44,-1.2 1.44,-0.6 1.39,-0.84"
           style="fill:none;stroke:#912c02;stroke-width:1.5;stroke-linecap:round;stroke-linejoin:round;stroke-miterlimit:10;stroke-dasharray:none;stroke-opacity:1"
           id="path104"
           inkscape:connector-curvature="0" /></g></g><g
       id="g106"><g
         id="g108"
         clip-path="url(#clipPath112)"><path
           d="m 77.417,651.72 1.423,-0.12 1.44,0.36 h 1.44 l 1.44,-0.12 1.44,0.12 1.44,-0.6 1.32,-0.24 1.44,-0.48 1.44,-0.36 1.44,-0.48 1.44,-0.6 1.44,-0.12 1.44,-0.24 h 1.44 1.44 l 1.44,-0.48 1.32,-0.48 1.44,-0.48 1.44,-0.48 1.44,-0.36 1.44,-0.12 h 1.44 l 1.44,-0.24 h 1.44 l 1.44,-0.36 1.44,-0.48 1.32,-0.36 1.44,-0.48 1.44,-0.48 1.44,-0.48 1.44,-0.24 h 1.44 l 1.44,-0.12 1.44,-0.12 1.44,-0.12 h 1.44 l 1.32,-0.24 h 1.44 1.44 1.44 l 1.44,-0.12 1.44,-0.12 1.44,-0.24 1.44,-0.36 h 1.44 1.44 l 1.32,0.12 1.44,0.24 1.44,0.6 h 1.44 l 1.44,-0.12 1.44,-0.36 1.44,-0.24 1.44,-0.24 H 156 l 1.44,0.24 h 1.32 l 1.44,-0.12 1.44,0.84 1.44,0.24 1.44,0.72 1.44,0.72 1.44,-0.12 1.44,0.12 1.44,0.24 1.44,-0.6 1.32,-0.12 1.44,0.12 1.44,-0.24 1.44,-0.24 1.44,-0.12 1.44,-0.12 1.44,-0.72 1.44,-0.24 1.44,-1.2 1.44,-1.56 1.32,-2.04 1.44,-2.4 1.44,-2.52 1.44,-3 1.44,-3.12 1.44,-3.84 1.44,-3.48 1.44,-4.08 1.44,-3.12 1.44,-3.96 1.32,-3.48 1.44,-4.08 1.44,-3.12 1.44,-1.08 1.44,-1.68 1.44,-1.44 1.44,-1.68 1.44,-1.56 1.44,-0.72 1.44,-3.24 1.32,-3.12 1.44,-1.8 1.44,-1.56 1.44,-2.76 h 1.44 l 1.44,-0.36 1.44,-0.36 1.44,-0.12 1.44,0.48 1.44,-0.6 1.32,-1.8 1.44,-2.4 1.44,-7.32 1.44,-2.88 h 1.44 l 1.44,-0.48 1.44,0.24 1.44,-2.04 h 1.44 1.44 l 1.32,-0.36 1.44,-1.08 1.44,-0.36 1.44,-0.36 1.44,-0.48 1.44,-1.08 1.44,-1.44 1.44,-0.48 1.44,-0.72 1.44,-0.72 1.32,-0.36 h 1.44 l 1.44,0.48 1.44,-0.24 1.44,-0.96 1.44,-0.36 h 1.44 l 1.44,-0.84 1.44,-0.24 1.44,-1.07 1.32,0.71 h 1.44 l 1.44,0.6 1.44,1.32 1.44,0.48 1.44,1.32 1.44,0.96 1.44,0.84 1.44,-1.44 1.44,0.48 1.32,0.48 1.44,0.36 1.44,-1.92 1.44,0.36 h 1.44 l 1.44,0.36 h 1.44 l 1.44,-1.32 1.44,1.32 1.44,1.2 1.44,0.72 1.32,-0.36 1.44,-0.96 1.44,-0.24 1.44,-0.24 1.44,-0.84 1.44,-0.72 1.44,-1.2 1.44,0.36 1.44,0.36 1.44,0.48 1.32,1.08 1.44,1.32 h 1.44 l 1.44,-0.12 1.44,0.36 1.44,0.36 1.44,-1.08 1.44,0.72 1.44,1.8 1.44,0.96 1.32,-1.44 1.44,0.48 1.44,0.12 1.44,-3.12 1.44,-1.08 1.44,-0.6 1.44,0.12 1.44,0.24 1.44,0.12 1.44,-0.24 1.32,-0.6 1.44,0.12 1.44,0.84 1.44,0.12 1.44,0.96 1.44,0.6 1.44,0.96 1.44,1.44 1.44,2.28 1.44,-0.48 1.32,-0.48 1.44,0.12 1.44,-0.12 1.44,-0.96 1.44,1.92 1.44,4.08 1.44,2.64 1.44,2.16 1.44,2.52 1.44,1.32 1.32,0.48 1.44,0.72 1.44,2.76 1.44,1.32 1.44,2.64 1.44,3.24 1.44,3.36 1.44,3.6 1.44,3.84 1.44,3.72 1.32,3.96 1.44,3.6 1.44,3.72 1.44,4.08 1.44,4.2 1.44,3.96 1.44,3.72 1.44,3.84 1.44,3.72 1.44,3.72 1.32,3.96 1.44,3.12 1.44,2.52 1.44,3.12 1.44,3 1.44,2.64 1.44,2.16 1.44,2.88 1.44,0.96 1.44,0.96 1.32,1.56 1.44,1.08 1.44,1.2 1.44,1.2 1.44,0.96 1.44,0.6 1.44,0.6 1.44,0.48 1.44,0.12 1.44,0.12 h 1.32 1.44 l 1.44,-0.36 1.44,-0.12 1.44,-0.48 1.44,0.24 1.44,0.24 1.44,0.12 1.44,-0.36 1.44,-0.12 1.32,-0.6 1.44,-0.36 1.44,0.12 1.44,-0.48 1.44,-1.32 1.44,-0.96 1.44,-1.2 1.44,0.24 1.44,-0.48 1.44,-1.32 1.32,-0.84 1.44,-1.08 1.44,-0.84 1.44,-0.72 1.44,-0.6 1.44,-0.48 1.44,-0.96 1.44,-0.36 1.44,-0.48 1.44,-1.2 1.32,-0.72 1.44,-0.84 1.44,-0.48 1.44,-0.72 1.44,-0.24 1.44,-0.72 1.44,-0.24 h 1.44 l 1.44,-0.24 h 1.39"
           style="fill:none;stroke:#540602;stroke-width:1.5;stroke-linecap:round;stroke-linejoin:round;stroke-miterlimit:10;stroke-dasharray:none;stroke-opacity:1"
           id="path114"
           inkscape:connector-curvature="0" /></g></g><g
       id="g116"><g
         id="g118"
         clip-path="url(#clipPath122)"><path
           d="m 77.417,658.8 1.423,0.24 1.44,0.36 1.44,-1.08 1.44,-0.6 1.44,-0.48 1.44,-0.48 1.32,-0.6 1.44,-0.72 1.44,-0.84 1.44,-0.96 1.44,-0.36 1.44,-0.48 1.44,-0.24 1.44,-0.48 1.44,-0.36 1.44,-0.6 1.32,-0.12 1.44,0.24 1.44,0.24 1.44,0.12 1.44,-0.36 1.44,-0.36 1.44,-0.6 1.44,-0.48 1.44,-0.6 1.44,-0.6 1.32,-0.48 1.44,-0.6 1.44,-0.24 1.44,-0.24 1.44,-0.24 h 1.44 l 1.44,-0.12 1.44,-0.48 1.44,-0.24 1.44,-0.72 1.32,-0.24 1.44,0.36 1.44,-0.12 h 1.44 l 1.44,0.12 1.44,-0.24 1.44,0.12 1.44,-0.12 1.44,0.24 1.44,0.24 1.32,0.12 1.44,0.36 1.44,-0.6 1.44,-0.12 h 1.44 1.44 l 1.44,0.24 1.44,0.12 H 156 l 1.44,0.24 1.32,0.48 1.44,0.24 1.44,0.12 1.44,0.12 1.44,0.12 1.44,0.6 1.44,0.48 1.44,0.36 1.44,0.12 1.44,0.12 h 1.32 l 1.44,0.36 1.44,0.48 h 1.44 l 1.44,0.36 1.44,0.24 1.44,0.24 1.44,0.84 1.44,-0.24 1.44,-0.48 1.32,-0.72 1.44,-0.96 1.44,-1.56 1.44,-1.32 1.44,-1.8 1.44,-2.16 1.44,-2.52 1.44,-3.24 1.44,-3.72 1.44,-3.6 1.32,-3.96 1.44,-3.48 1.44,-4.8 1.44,-3.48 1.44,-3.48 1.44,-4.8 1.44,-3.48 1.44,-3.96 1.44,-4.08 1.44,-3.12 1.32,-3.48 1.44,-1.56 1.44,-0.6 1.44,-3.96 1.44,-2.76 1.44,-1.08 1.44,-1.08 1.44,1.68 1.44,1.56 1.44,-1.8 1.32,-0.12 1.44,-1.08 1.44,-2.28 1.44,-2.16 1.44,-0.84 1.44,-0.72 1.44,-0.6 1.44,-0.24 1.44,-0.36 1.44,-0.72 1.32,-0.6 1.44,-0.48 1.44,-0.72 1.44,-0.72 1.44,-0.48 1.44,-0.72 1.44,-1.32 h 1.44 l 1.44,0.12 1.44,-0.24 1.32,-1.56 1.44,-1.8 1.44,-0.84 1.44,-0.48 1.44,-0.48 1.44,0.24 1.44,-2.88 1.44,-1.44 1.44,0.72 1.44,0.84 1.32,-0.96 h 1.44 l 1.44,-1.68 1.44,1.2 1.44,-1.44 h 1.44 l 1.44,-0.12 1.44,-0.6 1.44,-1.56 1.44,0.84 1.32,0.6 1.44,-0.36 1.44,0.36 h 1.44 l 1.44,-2.28 1.44,-0.96 1.44,0.6 1.44,-0.24 1.44,0.36 h 1.44 l 1.44,-2.04 1.32,-0.53 1.44,1.37 1.44,0.84 1.44,0.96 1.44,0.12 1.44,-0.6 h 1.44 l 1.44,1.32 1.44,0.96 1.44,0.36 1.32,0.84 1.44,0.96 1.44,-0.6 1.44,0.48 1.44,0.96 1.44,-0.96 h 1.44 l 1.44,0.72 1.44,-0.24 1.44,-1.2 1.32,0.48 1.44,-0.6 1.44,0.72 1.44,-0.72 1.44,-0.12 1.44,-0.12 1.44,-1.2 1.44,1.32 1.44,1.08 h 1.44 l 1.32,0.48 h 1.44 l 1.44,0.84 1.44,1.44 1.44,2.16 1.44,0.72 1.44,-0.48 1.44,0.12 1.44,1.56 1.44,1.56 1.32,-0.72 1.44,1.68 1.44,1.44 1.44,1.56 1.44,2.64 1.44,2.16 1.44,2.16 1.44,2.16 1.44,1.56 1.44,2.28 1.32,2.88 1.44,3 1.44,3.24 1.44,3.36 1.44,3.72 1.44,3.72 1.44,4.32 1.44,3.84 1.44,4.68 1.44,3.96 1.32,3.24 1.44,4.56 1.44,4.56 1.44,4.32 1.44,5.16 1.44,3.72 1.44,3.36 1.44,3.96 1.44,3.72 1.44,3.12 1.32,2.88 1.44,2.76 1.44,2.04 1.44,2.16 1.44,1.8 1.44,1.44 1.44,1.44 1.44,1.32 1.44,1.2 1.44,0.72 1.32,0.96 1.44,0.84 1.44,0.36 1.44,0.29 1.44,-0.05 1.44,-0.24 h 1.44 l 1.44,-0.12 1.44,-0.12 1.44,-0.36 1.32,-0.24 1.44,-0.12 1.44,-0.36 1.44,-0.12 1.44,-0.6 1.44,-0.36 1.44,0.12 1.44,-0.84 1.44,-0.36 1.44,-0.36 1.32,-0.72 1.44,-0.84 1.44,-0.84 1.44,-0.72 1.44,-0.84 1.44,-0.96 1.44,-1.08 1.44,-0.84 1.44,-0.24 1.44,-0.6 1.32,-0.36 1.44,-0.36 1.44,-0.36 1.44,-0.84 1.44,-0.48 1.44,-0.72 1.44,-0.72 1.44,-0.48 1.44,-0.84 1.44,-0.84 1.32,-0.48 1.44,-0.48 1.44,-0.6 1.44,-0.84 1.44,-0.72 1.44,-1.08 1.44,-1.08 1.44,-1.08 1.44,-0.84 1.39,-0.6"
           style="fill:none;stroke:#1b0102;stroke-width:3;stroke-linecap:round;stroke-linejoin:round;stroke-miterlimit:10;stroke-dasharray:none;stroke-opacity:1"
           id="path124"
           inkscape:connector-curvature="0" /></g></g><g
       id="g138"><g
         id="g140"
         clip-path="url(#clipPath144)"><text
           transform="matrix(1,0,0,-1,62.544,544.56)"
           style="font-variant:normal;font-weight:normal;font-size:9.96000004px;font-family:Arial;-inkscape-font-specification:ArialMT;writing-mode:lr-tb;fill:#000000;fill-opacity:1;fill-rule:nonzero;stroke:none"
           id="text148"><tspan
             x="0"
             y="0"
             id="tspan146">0</tspan></text>
</g></g><g
       id="g150"><g
         id="g152"
         clip-path="url(#clipPath156)"><text
           transform="matrix(1,0,0,-1,62.544,576.26)"
           style="font-variant:normal;font-weight:normal;font-size:9.96000004px;font-family:Arial;-inkscape-font-specification:ArialMT;writing-mode:lr-tb;fill:#000000;fill-opacity:1;fill-rule:nonzero;stroke:none"
           id="text160"><tspan
             x="0"
             y="0"
             id="tspan158">5</tspan></text>
</g></g><g
       id="g162"><g
         id="g164"
         clip-path="url(#clipPath168)"><text
           transform="matrix(1,0,0,-1,57,607.94)"
           style="font-variant:normal;font-weight:normal;font-size:9.96000004px;font-family:Arial;-inkscape-font-specification:ArialMT;writing-mode:lr-tb;fill:#000000;fill-opacity:1;fill-rule:nonzero;stroke:none"
           id="text172"><tspan
             x="0 5.5199599"
             y="0"
             sodipodi:role="line"
             id="tspan170">10</tspan></text>
</g></g><g
       id="g174"><g
         id="g176"
         clip-path="url(#clipPath180)"><text
           transform="matrix(1,0,0,-1,57,639.65)"
           style="font-variant:normal;font-weight:normal;font-size:9.96000004px;font-family:Arial;-inkscape-font-specification:ArialMT;writing-mode:lr-tb;fill:#000000;fill-opacity:1;fill-rule:nonzero;stroke:none"
           id="text184"><tspan
             x="0 5.5199599"
             y="0"
             sodipodi:role="line"
             id="tspan182">15</tspan></text>
</g></g><g
       id="g186"><g
         id="g188"
         clip-path="url(#clipPath192)"><text
           transform="matrix(1,0,0,-1,57,671.33)"
           style="font-variant:normal;font-weight:normal;font-size:9.96000004px;font-family:Arial;-inkscape-font-specification:ArialMT;writing-mode:lr-tb;fill:#000000;fill-opacity:1;fill-rule:nonzero;stroke:none"
           id="text196"><tspan
             x="0 5.5199599"
             y="0"
             sodipodi:role="line"
             id="tspan194">20</tspan></text>
</g></g><g
       id="g198"><g
         id="g200"
         clip-path="url(#clipPath204)"><text
           transform="matrix(1,0,0,-1,57,703.03)"
           style="font-variant:normal;font-weight:normal;font-size:9.96000004px;font-family:Arial;-inkscape-font-specification:ArialMT;writing-mode:lr-tb;fill:#000000;fill-opacity:1;fill-rule:nonzero;stroke:none"
           id="text208"><tspan
             x="0 5.5199599"
             y="0"
             sodipodi:role="line"
             id="tspan206">25</tspan></text>
</g></g><g
       id="g210"><g
         id="g212"
         clip-path="url(#clipPath216)"><text
           transform="matrix(1,0,0,-1,64.416,534.1)"
           style="font-variant:normal;font-weight:normal;font-size:9px;font-family:Arial;-inkscape-font-specification:ArialMT;writing-mode:lr-tb;fill:#000000;fill-opacity:1;fill-rule:nonzero;stroke:none"
           id="text220"><tspan
             x="0 5.0310001 9.9540005 12.456 18.459"
             y="0"
             sodipodi:role="line"
             id="tspan218">12 AM</tspan></text>
</g></g><g
       id="g222"><g
         id="g224"
         clip-path="url(#clipPath228)"><text
           transform="matrix(1,0,0,-1,101.21,534.1)"
           style="font-variant:normal;font-weight:normal;font-size:9px;font-family:Arial;-inkscape-font-specification:ArialMT;writing-mode:lr-tb;fill:#000000;fill-opacity:1;fill-rule:nonzero;stroke:none"
           id="text232"><tspan
             x="0 5.0310001 7.533 13.536"
             y="0"
             sodipodi:role="line"
             id="tspan230">2 AM</tspan></text>
</g></g><g
       id="g234"><g
         id="g236"
         clip-path="url(#clipPath240)"><text
           transform="matrix(1,0,0,-1,135.48,534.1)"
           style="font-variant:normal;font-weight:normal;font-size:9px;font-family:Arial;-inkscape-font-specification:ArialMT;writing-mode:lr-tb;fill:#000000;fill-opacity:1;fill-rule:nonzero;stroke:none"
           id="text244"><tspan
             x="0 5.0310001 7.533 13.536"
             y="0"
             sodipodi:role="line"
             id="tspan242">4 AM</tspan></text>
</g></g><g
       id="g246"><g
         id="g248"
         clip-path="url(#clipPath252)"><text
           transform="matrix(1,0,0,-1,169.78,534.1)"
           style="font-variant:normal;font-weight:normal;font-size:9px;font-family:Arial;-inkscape-font-specification:ArialMT;writing-mode:lr-tb;fill:#000000;fill-opacity:1;fill-rule:nonzero;stroke:none"
           id="text256"><tspan
             x="0 5.0310001 7.533 13.536"
             y="0"
             sodipodi:role="line"
             id="tspan254">6 AM</tspan></text>
</g></g><g
       id="g258"><g
         id="g260"
         clip-path="url(#clipPath264)"><text
           transform="matrix(1,0,0,-1,204.05,534.1)"
           style="font-variant:normal;font-weight:normal;font-size:9px;font-family:Arial;-inkscape-font-specification:ArialMT;writing-mode:lr-tb;fill:#000000;fill-opacity:1;fill-rule:nonzero;stroke:none"
           id="text268"><tspan
             x="0 5.0310001 7.533 13.536"
             y="0"
             sodipodi:role="line"
             id="tspan266">8 AM</tspan></text>
</g></g><g
       id="g270"><g
         id="g272"
         clip-path="url(#clipPath276)"><text
           transform="matrix(1,0,0,-1,235.82,534.1)"
           style="font-variant:normal;font-weight:normal;font-size:9px;font-family:Arial;-inkscape-font-specification:ArialMT;writing-mode:lr-tb;fill:#000000;fill-opacity:1;fill-rule:nonzero;stroke:none"
           id="text280"><tspan
             x="0 5.0310001 9.9540005 12.456 18.459"
             y="0"
             sodipodi:role="line"
             id="tspan278">10 AM</tspan></text>
</g></g><g
       id="g282"><g
         id="g284"
         clip-path="url(#clipPath288)"><text
           transform="matrix(1,0,0,-1,270.1,534.1)"
           style="font-variant:normal;font-weight:normal;font-size:9px;font-family:Arial;-inkscape-font-specification:ArialMT;writing-mode:lr-tb;fill:#000000;fill-opacity:1;fill-rule:nonzero;stroke:none"
           id="text292"><tspan
             x="0 5.0310001 9.9540005 12.456 18.459"
             y="0"
             sodipodi:role="line"
             id="tspan290">12 PM</tspan></text>
</g></g><g
       id="g294"><g
         id="g296"
         clip-path="url(#clipPath300)"><text
           transform="matrix(1,0,0,-1,306.89,534.1)"
           style="font-variant:normal;font-weight:normal;font-size:9px;font-family:Arial;-inkscape-font-specification:ArialMT;writing-mode:lr-tb;fill:#000000;fill-opacity:1;fill-rule:nonzero;stroke:none"
           id="text304"><tspan
             x="0 5.0310001 7.533 13.536"
             y="0"
             sodipodi:role="line"
             id="tspan302">2 PM</tspan></text>
</g></g><g
       id="g306"><g
         id="g308"
         clip-path="url(#clipPath312)"><text
           transform="matrix(1,0,0,-1,341.16,534.1)"
           style="font-variant:normal;font-weight:normal;font-size:9px;font-family:Arial;-inkscape-font-specification:ArialMT;writing-mode:lr-tb;fill:#000000;fill-opacity:1;fill-rule:nonzero;stroke:none"
           id="text316"><tspan
             x="0 5.0310001 7.533 13.536"
             y="0"
             sodipodi:role="line"
             id="tspan314">4 PM</tspan></text>
</g></g><g
       id="g318"><g
         id="g320"
         clip-path="url(#clipPath324)"><text
           transform="matrix(1,0,0,-1,375.43,534.1)"
           style="font-variant:normal;font-weight:normal;font-size:9px;font-family:Arial;-inkscape-font-specification:ArialMT;writing-mode:lr-tb;fill:#000000;fill-opacity:1;fill-rule:nonzero;stroke:none"
           id="text328"><tspan
             x="0 5.0580001 7.5599999 13.59"
             y="0"
             sodipodi:role="line"
             id="tspan326">6 PM</tspan></text>
</g></g><g
       id="g330"><g
         id="g332"
         clip-path="url(#clipPath336)"><text
           transform="matrix(1,0,0,-1,409.73,534.1)"
           style="font-variant:normal;font-weight:normal;font-size:9px;font-family:Arial;-inkscape-font-specification:ArialMT;writing-mode:lr-tb;fill:#000000;fill-opacity:1;fill-rule:nonzero;stroke:none"
           id="text340"><tspan
             x="0 5.0310001 7.533 13.536"
             y="0"
             sodipodi:role="line"
             id="tspan338">8 PM</tspan></text>
</g></g><g
       id="g342"><g
         id="g344"
         clip-path="url(#clipPath348)"><text
           transform="matrix(1,0,0,-1,441.5,534.1)"
           style="font-variant:normal;font-weight:normal;font-size:9px;font-family:Arial;-inkscape-font-specification:ArialMT;writing-mode:lr-tb;fill:#000000;fill-opacity:1;fill-rule:nonzero;stroke:none"
           id="text352"><tspan
             x="0 5.0310001 9.9540005 12.456 18.459"
             y="0"
             sodipodi:role="line"
             id="tspan350">10 PM</tspan></text>
</g></g><g
       id="g364"><g
         id="g366"
         clip-path="url(#clipPath370)"><text
           transform="matrix(1,0,0,-1,308.71,635.98)"
           style="font-variant:normal;font-weight:normal;font-size:9px;font-family:Arial;-inkscape-font-specification:ArialMT;writing-mode:lr-tb;fill:#fde88b;fill-opacity:1;fill-rule:nonzero;stroke:none"
           id="text374"><tspan
             x="0 5.04 10.08 15.12"
             y="0"
             sodipodi:role="line"
             id="tspan372">2015</tspan></text>
</g></g><g
       id="g376"><g
         id="g378"
         clip-path="url(#clipPath382)"><text
           transform="matrix(1,0,0,-1,279.62,618.72)"
           style="font-variant:normal;font-weight:normal;font-size:9px;font-family:Arial;-inkscape-font-specification:ArialMT;writing-mode:lr-tb;fill:#fdc22a;fill-opacity:1;fill-rule:nonzero;stroke:none"
           id="text386"><tspan
             x="0 5.04 10.08 15.12"
             y="0"
             sodipodi:role="line"
             id="tspan384">2016</tspan></text>
</g></g><g
       id="g388"><g
         id="g390"
         clip-path="url(#clipPath394)"><text
           transform="matrix(1,0,0,-1,294.96,600)"
           style="font-variant:normal;font-weight:normal;font-size:9.02400017px;font-family:Arial;-inkscape-font-specification:ArialMT;writing-mode:lr-tb;fill:#ed6803;fill-opacity:1;fill-rule:nonzero;stroke:none"
           id="text398"><tspan
             x="0 5.0400438 10.080088 15.120132"
             y="0"
             sodipodi:role="line"
             id="tspan396">2019</tspan></text>
</g></g><g
       id="g400"><g
         id="g402"
         clip-path="url(#clipPath406)"><text
           transform="matrix(1,0,0,-1,326.69,601.46)"
           style="font-variant:normal;font-weight:normal;font-size:9px;font-family:Arial;-inkscape-font-specification:ArialMT;writing-mode:lr-tb;fill:#fda706;fill-opacity:1;fill-rule:nonzero;stroke:none"
           id="text410"><tspan
             x="0 5.04 10.08 15.12"
             y="0"
             sodipodi:role="line"
             id="tspan408">2017</tspan></text>
</g></g><g
       id="g412"><g
         id="g414"
         clip-path="url(#clipPath418)"><text
           transform="matrix(1,0,0,-1,320.33,564.98)"
           style="font-variant:normal;font-weight:normal;font-size:9px;font-family:Arial;-inkscape-font-specification:ArialMT;writing-mode:lr-tb;fill:#912c02;fill-opacity:1;fill-rule:nonzero;stroke:none"
           id="text422"><tspan
             x="0 5.04 10.08 15.12"
             y="0"
             sodipodi:role="line"
             id="tspan420">2021</tspan></text>
</g></g><g
       id="g424"><g
         id="g426"
         clip-path="url(#clipPath430)"><text
           transform="matrix(1,0,0,-1,279.62,556.1)"
           style="font-variant:normal;font-weight:normal;font-size:9px;font-family:Arial;-inkscape-font-specification:ArialMT;writing-mode:lr-tb;fill:#540602;fill-opacity:1;fill-rule:nonzero;stroke:none"
           id="text434"><tspan
             x="0 5.04 10.08 15.12"
             y="0"
             sodipodi:role="line"
             id="tspan432">2022</tspan></text>
</g></g><g
       id="g436"><g
         id="g438"
         clip-path="url(#clipPath442)"><text
           transform="matrix(1,0,0,-1,238.49,570.94)"
           style="font-variant:normal;font-weight:bold;font-size:9.96000004px;font-family:Arial;-inkscape-font-specification:Arial-BoldMT;writing-mode:lr-tb;fill:#1b0102;fill-opacity:1;fill-rule:nonzero;stroke:none"
           id="text446"><tspan
             x="0 5.5199599 11.03992 16.559879"
             y="0"
             sodipodi:role="line"
             id="tspan444">2023</tspan></text>
</g></g><g
       id="g448"><g
         id="g450"
         clip-path="url(#clipPath454)"><text
           transform="matrix(1,0,0,-1,269.59,574.85)"
           style="font-variant:normal;font-weight:normal;font-size:9px;font-family:Arial;-inkscape-font-specification:ArialMT;writing-mode:lr-tb;fill:#c64a02;fill-opacity:1;fill-rule:nonzero;stroke:none"
           id="text458"><tspan
             x="0 5.04 10.08 15.12"
             y="0"
             sodipodi:role="line"
             id="tspan456">2020</tspan></text>
</g></g><g
       id="g460"><g
         id="g462"
         clip-path="url(#clipPath466)"><text
           transform="matrix(1,0,0,-1,300.24,582.24)"
           style="font-variant:normal;font-weight:normal;font-size:9px;font-family:Arial;-inkscape-font-specification:ArialMT;writing-mode:lr-tb;fill:#fb8104;fill-opacity:1;fill-rule:nonzero;stroke:none"
           id="text470"><tspan
             x="0 5.04 10.08 15.12"
             y="0"
             sodipodi:role="line"
             id="tspan468">2018</tspan></text>
</g></g><g
       id="g472"><g
         id="g474"
         clip-path="url(#clipPath478)"><text
           transform="matrix(1,0,0,-1,51.84,727.68)"
           style="font-variant:normal;font-weight:bold;font-size:11.03999996px;font-family:Arial;-inkscape-font-specification:Arial-BoldMT;writing-mode:lr-tb;fill:#000000;fill-opacity:1;fill-rule:nonzero;stroke:none"
           id="text482"><tspan
             x="0 7.9156799 14.05392 17.123039 20.26944 23.97888 30.724319 35.018879 41.76432 44.833439 50.97168 53.599201"
             y="0"
             sodipodi:role="line"
             id="tspan480">California's</tspan></text>
</g></g><g
       id="g484"><g
         id="g486"
         clip-path="url(#clipPath490)"><text
           transform="matrix(1,0,0,-1,114.38,727.68)"
           style="font-variant:normal;font-weight:bold;font-size:11.03999996px;font-family:Arial;-inkscape-font-specification:Arial-BoldMT;writing-mode:lr-tb;fill:#000000;fill-opacity:1;fill-rule:nonzero;stroke:none"
           id="text494"><tspan
             x="0 6.74544 13.43568 19.573919 25.679041 28.681919 34.82016 41.521439 45.816002 51.843842 57.982079 61.194721 64.307999 70.446243 73.42704 80.172478 86.266563 89.975998 93.68544 96.798721 103.54416 110.2344 113.11584 119.86128 125.95536 132.0936 138.79488 144.93312"
             y="0"
             sodipodi:role="line"
             id="tspan492">duck curve is getting deeper</tspan></text>
</g></g><g
       id="g496"><g
         id="g498"
         clip-path="url(#clipPath502)"><text
           transform="matrix(1,0,0,-1,51.84,715.92)"
           style="font-variant:normal;font-weight:normal;font-size:9.98400021px;font-family:Arial;-inkscape-font-specification:ArialMT;writing-mode:lr-tb;fill:#000000;fill-opacity:1;fill-rule:nonzero;stroke:none"
           id="text506"><tspan
             x="0 7.2084479 13.797888 16.573441 23.16288 30.950399 33.815807 35.972351 41.493504 48.572159 54.093311 59.125248 61.900799 64.995842 70.516991 76.038147 78.813698 81.669121 83.825661 89.346817 94.867966 100.38912 103.25452 108.77568 114.29683 118.97932 122.21414 127.7353 133.25645 138.28839 143.80954 146.67494 151.70688 157.22803 160.58266 162.7392 168.26035 173.78151 176.64691 180.00154 188.27827 193.79942 197.15405 202.18599"
             y="0"
             sodipodi:role="line"
             id="tspan504">CAISO lowest net load day each spring (March</tspan></text>
</g></g><g
       id="g508"><g
         id="g510"
         clip-path="url(#clipPath514)"><text
           transform="matrix(1,0,0,-1,259.73,715.92)"
           style="font-variant:normal;font-weight:normal;font-size:9.98400021px;font-family:Arial;-inkscape-font-specification:ArialMT;writing-mode:lr-tb;fill:#000000;fill-opacity:1;fill-rule:nonzero;stroke:none"
           id="text518"><tspan
             x="0"
             y="0"
             id="tspan516"></tspan></text>
</g></g><g
       id="g520"><g
         id="g522"
         clip-path="url(#clipPath526)"><text
           transform="matrix(1,0,0,-1,265.25,715.92)"
           style="font-variant:normal;font-weight:normal;font-size:9.98400021px;font-family:Arial;-inkscape-font-specification:ArialMT;writing-mode:lr-tb;fill:#000000;fill-opacity:1;fill-rule:nonzero;stroke:none"
           id="text530"><tspan
             x="0 8.2767363 13.797888 18.480385 21.255936 24.470783 29.991936 35.513088 41.034241"
             y="0"
             sodipodi:role="line"
             id="tspan528">May, 2015</tspan></text>
</g></g><g
       id="g532"><g
         id="g534"
         clip-path="url(#clipPath538)"><text
           transform="matrix(1,0,0,-1,311.81,715.92)"
           style="font-variant:normal;font-weight:normal;font-size:9.98400021px;font-family:Arial;-inkscape-font-specification:ArialMT;writing-mode:lr-tb;fill:#000000;fill-opacity:1;fill-rule:nonzero;stroke:none"
           id="text542"><tspan
             x="0"
             y="0"
             id="tspan540"></tspan></text>
</g></g><g
       id="g544"><g
         id="g546"
         clip-path="url(#clipPath550)"><text
           transform="matrix(1,0,0,-1,317.33,715.92)"
           style="font-variant:normal;font-weight:normal;font-size:9.98400021px;font-family:Arial;-inkscape-font-specification:ArialMT;writing-mode:lr-tb;fill:#000000;fill-opacity:1;fill-rule:nonzero;stroke:none"
           id="text554"><tspan
             x="0 5.544004 11.088008 16.632011 22.176016"
             y="0"
             sodipodi:role="line"
             id="tspan552">2023)</tspan></text>
</g></g><g
       id="g556"><g
         id="g558"
         clip-path="url(#clipPath562)"><text
           transform="matrix(1,0,0,-1,342.79,715.92)"
           style="font-variant:normal;font-weight:normal;font-size:9.98400021px;font-family:Arial;-inkscape-font-specification:ArialMT;writing-mode:lr-tb;fill:#000000;fill-opacity:1;fill-rule:nonzero;stroke:none"
           id="text566"><tspan
             x="0 2.775552 5.8705921 11.391744 13.548288 19.069441 24.590591 31.669249 37.190399 39.965954 42.711552"
             y="0"
             sodipodi:role="line"
             id="tspan564">, gigawatts</tspan></text>
</g></g><g
       transform="matrix(0.25089208,0,0,-0.25089208,474.47062,734.20717)"
       clip-path="url(#clipPath1152)"
       id="g859">
	<path
   id="path847"
   d="m 87.8,59.8 c 0,-11.4 -6,-13.6 -11.1,-14 -8.5,-0.6 -14.8,4.6 -14.8,4.6 l 4.7,4.8 c 5,-4 13.3,-3.2 14,2 0,0 -7.3,1.7 -9,2 -5.1,1.1 -8.5,1.5 -11.1,5.3 -2.3,3.7 -1.7,9.2 1.7,12.3 4.7,4.2 14.5,4.2 19.4,-1.5 0,0 0.6,3.2 1,4.2 H 90 C 86.9,72.3 87.7,64.6 87.8,59.8 Z m -7.2,5.1 c -0.4,3.3 -2.7,7.4 -8.8,8.2 -3.8,0.5 -7.4,-2 -5.5,-5.4 0.6,-1.1 1.9,-1.9 3.7,-2.2 1.1,-0.2 2.3,-0.3 3.6,-0.5 2.8,-0.4 5.4,-1 7,-1.6 0,0 0,1.1 0,1.5 z"
   class="st0"
   inkscape:connector-curvature="0"
   style="fill:#333333" />
	<path
   id="path849"
   d="M 40,62.9 C 40.1,53.1 34.7,46.1 24.9,46.2 15.3,46.1 9.5,53.5 9.6,63 c 0,5.1 1.4,9.1 4.3,12.2 3.6,4.1 10.4,5.4 16,4 4,-1 7.1,-3.7 9.3,-7.1 L 33,68.7 c -4.6,7.7 -15.3,5.1 -15.7,-4 H 40 Z M 17.8,58.7 c 1.7,-7.6 13.1,-8 14.7,0 z"
   class="st0"
   inkscape:connector-curvature="0"
   style="fill:#333333" />
	<path
   id="path851"
   d="M 83.1,24.8 C 70.3,17.6 49.7,18.5 11.5,39.8 9.4,41 9.4,40.3 9.9,39.7 12.6,36.5 46.6,8.6 76.8,11.2 c 8.8,0.8 24.5,5.9 27.1,22.9 2.6,17 -5.1,27 -7.4,27.5 C 99.6,49.8 97.6,33 83.1,24.8 Z"
   class="st1"
   inkscape:connector-curvature="0"
   style="fill:#0096d7" />
	<g
   id="g857">
		<path
   id="path853"
   d="m 46,49.4 v 30 h 7.3 v -30 z"
   class="st0"
   inkscape:connector-curvature="0"
   style="fill:#333333" />
		<circle
   id="circle855"
   r="4.6999998"
   cy="40.099998"
   cx="49.700001"
   class="st0"
   style="fill:#333333" />
	</g>
</g></g><style
     id="style845"
     type="text/css">
	.st0{fill:#333333;}
	.st1{fill:#0096D7;}
</style></svg>